<?xml version="1.0" encoding="utf-8" standalone="no"?>
<!DOCTYPE svg PUBLIC "-//W3C//DTD SVG 1.1//EN"
  "http://www.w3.org/Graphics/SVG/1.1/DTD/svg11.dtd">
<svg xmlns:xlink="http://www.w3.org/1999/xlink" width="576pt" height="216pt" viewBox="0 0 576 216" xmlns="http://www.w3.org/2000/svg" version="1.1">
 <metadata>
  <rdf:RDF xmlns:dc="http://purl.org/dc/elements/1.1/" xmlns:cc="http://creativecommons.org/ns#" xmlns:rdf="http://www.w3.org/1999/02/22-rdf-syntax-ns#">
   <cc:Work>
    <dc:type rdf:resource="http://purl.org/dc/dcmitype/StillImage"/>
    <dc:date>2024-01-04T17:09:15.431012</dc:date>
    <dc:format>image/svg+xml</dc:format>
    <dc:creator>
     <cc:Agent>
      <dc:title>Matplotlib v3.5.3, https://matplotlib.org/</dc:title>
     </cc:Agent>
    </dc:creator>
   </cc:Work>
  </rdf:RDF>
 </metadata>
 <defs>
  <style type="text/css">*{stroke-linejoin: round; stroke-linecap: butt}</style>
 </defs>
 <g id="figure_1">
  <g id="patch_1">
   <path d="M 0 216 
L 576 216 
L 576 0 
L 0 0 
z
" style="fill: #ffffff"/>
  </g>
  <g id="axes_1">
   <g id="patch_2">
    <path d="M 41.56 166.04 
L 561.96 166.04 
L 561.96 31.56 
L 41.56 31.56 
z
" style="fill: #ffffff"/>
   </g>
   <g id="PolyCollection_1">
    <defs>
     <path id="m31cfc60588" d="M 41.56 -53.493299 
L 41.56 -52.496394 
L 45.933109 -52.69643 
L 50.306218 -52.911712 
L 54.679328 -53.143332 
L 59.052437 -53.392448 
L 63.425546 -53.660288 
L 67.798655 -53.948154 
L 72.171765 -54.25742 
L 76.544874 -54.58954 
L 80.917983 -54.946043 
L 85.291092 -55.328536 
L 89.664202 -55.738709 
L 94.037311 -56.178327 
L 98.41042 -56.649234 
L 102.783529 -57.153349 
L 107.156639 -57.692663 
L 111.529748 -58.269235 
L 115.902857 -58.885186 
L 120.275966 -59.542691 
L 124.649076 -60.243968 
L 129.022185 -60.991273 
L 133.395294 -61.786879 
L 137.768403 -62.633064 
L 142.141513 -63.532097 
L 146.514622 -64.486209 
L 150.887731 -65.497578 
L 155.26084 -66.568299 
L 159.63395 -67.700359 
L 164.007059 -68.895605 
L 168.380168 -70.15571 
L 172.753277 -71.482141 
L 177.126387 -72.876122 
L 181.499496 -74.338597 
L 185.872605 -75.870192 
L 190.245714 -77.471178 
L 194.618824 -79.141435 
L 198.991933 -80.880418 
L 203.365042 -82.687128 
L 207.738151 -84.560083 
L 212.111261 -86.497301 
L 216.48437 -88.496286 
L 220.857479 -90.554021 
L 225.230588 -92.666976 
L 229.603697 -94.831119 
L 233.976807 -97.041944 
L 238.349916 -99.29451 
L 242.723025 -101.583485 
L 247.096134 -103.903208 
L 251.469244 -106.247757 
L 255.842353 -108.61102 
L 260.215462 -110.986779 
L 264.588571 -113.368791 
L 268.961681 -115.750861 
L 273.33479 -118.126924 
L 277.707899 -120.491105 
L 282.081008 -122.83778 
L 286.454118 -125.161619 
L 290.827227 -127.457623 
L 295.200336 -129.721147 
L 299.573445 -131.947916 
L 303.946555 -134.134033 
L 308.319664 -136.275982 
L 312.692773 -138.370621 
L 317.065882 -140.41518 
L 321.438992 -142.407253 
L 325.812101 -144.344787 
L 330.18521 -146.226068 
L 334.558319 -148.049715 
L 338.931429 -149.81466 
L 343.304538 -151.520139 
L 347.677647 -153.165673 
L 352.050756 -154.751052 
L 356.423866 -156.276319 
L 360.796975 -157.741753 
L 365.170084 -159.147846 
L 369.543193 -160.49529 
L 373.916303 -161.784952 
L 378.289412 -163.017862 
L 382.662521 -164.195187 
L 387.03563 -165.318217 
L 391.408739 -166.388346 
L 395.781849 -167.407055 
L 400.154958 -168.375896 
L 404.528067 -169.296478 
L 408.901176 -170.170451 
L 413.274286 -170.999493 
L 417.647395 -171.7853 
L 422.020504 -172.529573 
L 426.393613 -173.23401 
L 430.766723 -173.900298 
L 435.139832 -174.530102 
L 439.512941 -175.125061 
L 443.88605 -175.686784 
L 448.25916 -176.21684 
L 452.632269 -176.716761 
L 457.005378 -177.188031 
L 461.378487 -177.632091 
L 465.751597 -178.050331 
L 470.124706 -178.444093 
L 474.497815 -178.814668 
L 478.870924 -179.163294 
L 483.244034 -179.491159 
L 487.617143 -179.799402 
L 491.990252 -180.089108 
L 496.363361 -180.361314 
L 500.736471 -180.61701 
L 505.10958 -180.857134 
L 509.482689 -181.082583 
L 513.855798 -181.294205 
L 518.228908 -181.492805 
L 522.602017 -181.679149 
L 526.975126 -181.85396 
L 531.348235 -182.017922 
L 535.721345 -182.171684 
L 540.094454 -182.315857 
L 544.467563 -182.451019 
L 548.840672 -182.577716 
L 553.213782 -182.696462 
L 557.586891 -182.807743 
L 561.96 -182.912015 
L 561.96 -183.311465 
L 561.96 -183.311465 
L 557.586891 -183.229822 
L 553.213782 -183.142331 
L 548.840672 -183.048581 
L 544.467563 -182.948133 
L 540.094454 -182.840521 
L 535.721345 -182.725247 
L 531.348235 -182.60178 
L 526.975126 -182.469555 
L 522.602017 -182.32797 
L 518.228908 -182.176386 
L 513.855798 -182.014122 
L 509.482689 -181.840454 
L 505.10958 -181.654616 
L 500.736471 -181.455794 
L 496.363361 -181.243124 
L 491.990252 -181.015692 
L 487.617143 -180.772533 
L 483.244034 -180.512624 
L 478.870924 -180.234888 
L 474.497815 -179.938189 
L 470.124706 -179.621329 
L 465.751597 -179.283053 
L 461.378487 -178.922039 
L 457.005378 -178.536906 
L 452.632269 -178.126209 
L 448.25916 -177.688438 
L 443.88605 -177.222024 
L 439.512941 -176.725334 
L 435.139832 -176.19668 
L 430.766723 -175.634316 
L 426.393613 -175.036446 
L 422.020504 -174.401224 
L 417.647395 -173.726768 
L 413.274286 -173.01116 
L 408.901176 -172.252459 
L 404.528067 -171.448709 
L 400.154958 -170.597953 
L 395.781849 -169.698244 
L 391.408739 -168.747663 
L 387.03563 -167.744332 
L 382.662521 -166.686439 
L 378.289412 -165.572252 
L 373.916303 -164.400144 
L 369.543193 -163.16862 
L 365.170084 -161.876336 
L 360.796975 -160.52213 
L 356.423866 -159.105046 
L 352.050756 -157.624367 
L 347.677647 -156.079637 
L 343.304538 -154.470691 
L 338.931429 -152.797684 
L 334.558319 -151.061111 
L 330.18521 -149.261834 
L 325.812101 -147.4011 
L 321.438992 -145.480559 
L 317.065882 -143.502271 
L 312.692773 -141.46872 
L 308.319664 -139.38281 
L 303.946555 -137.247865 
L 299.573445 -135.067612 
L 295.200336 -132.846169 
L 290.827227 -130.58802 
L 286.454118 -128.297981 
L 282.081008 -125.981166 
L 277.707899 -123.642943 
L 273.33479 -121.288886 
L 268.961681 -118.924726 
L 264.588571 -116.556291 
L 260.215462 -114.189453 
L 255.842353 -111.830066 
L 251.469244 -109.483913 
L 247.096134 -107.156645 
L 242.723025 -104.853732 
L 238.349916 -102.580409 
L 233.976807 -100.341633 
L 229.603697 -98.142043 
L 225.230588 -95.985928 
L 220.857479 -93.877197 
L 216.48437 -91.819358 
L 212.111261 -89.815509 
L 207.738151 -87.868325 
L 203.365042 -85.98006 
L 198.991933 -84.152549 
L 194.618824 -82.387222 
L 190.245714 -80.685114 
L 185.872605 -79.046885 
L 181.499496 -77.472842 
L 177.126387 -75.962963 
L 172.753277 -74.516922 
L 168.380168 -73.134117 
L 164.007059 -71.813698 
L 159.63395 -70.554593 
L 155.26084 -69.355539 
L 150.887731 -68.215105 
L 146.514622 -67.131723 
L 142.141513 -66.103705 
L 137.768403 -65.129273 
L 133.395294 -64.206576 
L 129.022185 -63.333713 
L 124.649076 -62.508747 
L 120.275966 -61.729725 
L 115.902857 -60.994687 
L 111.529748 -60.301684 
L 107.156639 -59.648788 
L 102.783529 -59.034098 
L 98.41042 -58.455751 
L 94.037311 -57.911928 
L 89.664202 -57.40086 
L 85.291092 -56.920831 
L 80.917983 -56.470183 
L 76.544874 -56.047317 
L 72.171765 -55.650697 
L 67.798655 -55.278848 
L 63.425546 -54.93036 
L 59.052437 -54.603883 
L 54.679328 -54.298132 
L 50.306218 -54.011884 
L 45.933109 -53.743975 
L 41.56 -53.493299 
z
" style="stroke: #bfbfbf"/>
    </defs>
    <g clip-path="url(#pf44816304a)">
     <use xlink:href="#m31cfc60588" x="0" y="216" style="fill: #bfbfbf; stroke: #bfbfbf"/>
    </g>
   </g>
   <g id="PolyCollection_2">
    <defs>
     <path id="m08bffff5c6" d="M 41.56 -53.493299 
L 41.56 -54.490205 
L 45.933109 -54.791519 
L 50.306218 -55.112056 
L 54.679328 -55.452933 
L 59.052437 -55.815318 
L 63.425546 -56.200431 
L 67.798655 -56.609543 
L 72.171765 -57.043974 
L 76.544874 -57.505094 
L 80.917983 -57.994322 
L 85.291092 -58.513125 
L 89.664202 -59.06301 
L 94.037311 -59.645528 
L 98.41042 -60.262267 
L 102.783529 -60.914847 
L 107.156639 -61.604913 
L 111.529748 -62.334133 
L 115.902857 -63.104187 
L 120.275966 -63.916759 
L 124.649076 -64.773527 
L 129.022185 -65.676153 
L 133.395294 -66.626274 
L 137.768403 -67.625481 
L 142.141513 -68.675313 
L 146.514622 -69.777237 
L 150.887731 -70.932633 
L 155.26084 -72.142778 
L 159.63395 -73.408826 
L 164.007059 -74.73179 
L 168.380168 -76.112524 
L 172.753277 -77.551703 
L 177.126387 -79.049804 
L 181.499496 -80.607087 
L 185.872605 -82.223577 
L 190.245714 -83.89905 
L 194.618824 -85.633009 
L 198.991933 -87.42468 
L 203.365042 -89.272992 
L 207.738151 -91.176567 
L 212.111261 -93.133717 
L 216.48437 -95.14243 
L 220.857479 -97.200372 
L 225.230588 -99.30488 
L 229.603697 -101.452968 
L 233.976807 -103.641321 
L 238.349916 -105.866307 
L 242.723025 -108.123979 
L 247.096134 -110.410082 
L 251.469244 -112.720069 
L 255.842353 -115.049112 
L 260.215462 -117.392126 
L 264.588571 -119.743792 
L 268.961681 -122.098591 
L 273.33479 -124.450849 
L 277.707899 -126.79478 
L 282.081008 -129.124552 
L 286.454118 -131.434343 
L 290.827227 -133.718418 
L 295.200336 -135.971192 
L 299.573445 -138.187307 
L 303.946555 -140.361696 
L 308.319664 -142.489639 
L 312.692773 -144.566819 
L 317.065882 -146.589362 
L 321.438992 -148.553864 
L 325.812101 -150.457414 
L 330.18521 -152.2976 
L 334.558319 -154.072507 
L 338.931429 -155.780708 
L 343.304538 -157.421243 
L 347.677647 -158.993601 
L 352.050756 -160.497683 
L 356.423866 -161.933773 
L 360.796975 -163.302507 
L 365.170084 -164.604826 
L 369.543193 -165.841951 
L 373.916303 -167.015336 
L 378.289412 -168.126641 
L 382.662521 -169.177691 
L 387.03563 -170.170448 
L 391.408739 -171.10698 
L 395.781849 -171.989434 
L 400.154958 -172.82001 
L 404.528067 -173.600941 
L 408.901176 -174.334467 
L 413.274286 -175.022827 
L 417.647395 -175.668236 
L 422.020504 -176.272875 
L 426.393613 -176.838881 
L 430.766723 -177.368335 
L 435.139832 -177.863259 
L 439.512941 -178.325608 
L 443.88605 -178.757264 
L 448.25916 -179.160036 
L 452.632269 -179.535657 
L 457.005378 -179.885781 
L 461.378487 -180.211987 
L 465.751597 -180.515774 
L 470.124706 -180.798565 
L 474.497815 -181.06171 
L 478.870924 -181.306483 
L 483.244034 -181.534089 
L 487.617143 -181.745664 
L 491.990252 -181.942276 
L 496.363361 -182.124933 
L 500.736471 -182.294578 
L 505.10958 -182.452098 
L 509.482689 -182.598326 
L 513.855798 -182.734039 
L 518.228908 -182.859967 
L 522.602017 -182.976791 
L 526.975126 -183.08515 
L 531.348235 -183.185637 
L 535.721345 -183.27881 
L 540.094454 -183.365185 
L 544.467563 -183.445247 
L 548.840672 -183.519446 
L 553.213782 -183.5882 
L 557.586891 -183.651902 
L 561.96 -183.710914 
L 561.96 -183.311465 
L 561.96 -183.311465 
L 557.586891 -183.229822 
L 553.213782 -183.142331 
L 548.840672 -183.048581 
L 544.467563 -182.948133 
L 540.094454 -182.840521 
L 535.721345 -182.725247 
L 531.348235 -182.60178 
L 526.975126 -182.469555 
L 522.602017 -182.32797 
L 518.228908 -182.176386 
L 513.855798 -182.014122 
L 509.482689 -181.840454 
L 505.10958 -181.654616 
L 500.736471 -181.455794 
L 496.363361 -181.243124 
L 491.990252 -181.015692 
L 487.617143 -180.772533 
L 483.244034 -180.512624 
L 478.870924 -180.234888 
L 474.497815 -179.938189 
L 470.124706 -179.621329 
L 465.751597 -179.283053 
L 461.378487 -178.922039 
L 457.005378 -178.536906 
L 452.632269 -178.126209 
L 448.25916 -177.688438 
L 443.88605 -177.222024 
L 439.512941 -176.725334 
L 435.139832 -176.19668 
L 430.766723 -175.634316 
L 426.393613 -175.036446 
L 422.020504 -174.401224 
L 417.647395 -173.726768 
L 413.274286 -173.01116 
L 408.901176 -172.252459 
L 404.528067 -171.448709 
L 400.154958 -170.597953 
L 395.781849 -169.698244 
L 391.408739 -168.747663 
L 387.03563 -167.744332 
L 382.662521 -166.686439 
L 378.289412 -165.572252 
L 373.916303 -164.400144 
L 369.543193 -163.16862 
L 365.170084 -161.876336 
L 360.796975 -160.52213 
L 356.423866 -159.105046 
L 352.050756 -157.624367 
L 347.677647 -156.079637 
L 343.304538 -154.470691 
L 338.931429 -152.797684 
L 334.558319 -151.061111 
L 330.18521 -149.261834 
L 325.812101 -147.4011 
L 321.438992 -145.480559 
L 317.065882 -143.502271 
L 312.692773 -141.46872 
L 308.319664 -139.38281 
L 303.946555 -137.247865 
L 299.573445 -135.067612 
L 295.200336 -132.846169 
L 290.827227 -130.58802 
L 286.454118 -128.297981 
L 282.081008 -125.981166 
L 277.707899 -123.642943 
L 273.33479 -121.288886 
L 268.961681 -118.924726 
L 264.588571 -116.556291 
L 260.215462 -114.189453 
L 255.842353 -111.830066 
L 251.469244 -109.483913 
L 247.096134 -107.156645 
L 242.723025 -104.853732 
L 238.349916 -102.580409 
L 233.976807 -100.341633 
L 229.603697 -98.142043 
L 225.230588 -95.985928 
L 220.857479 -93.877197 
L 216.48437 -91.819358 
L 212.111261 -89.815509 
L 207.738151 -87.868325 
L 203.365042 -85.98006 
L 198.991933 -84.152549 
L 194.618824 -82.387222 
L 190.245714 -80.685114 
L 185.872605 -79.046885 
L 181.499496 -77.472842 
L 177.126387 -75.962963 
L 172.753277 -74.516922 
L 168.380168 -73.134117 
L 164.007059 -71.813698 
L 159.63395 -70.554593 
L 155.26084 -69.355539 
L 150.887731 -68.215105 
L 146.514622 -67.131723 
L 142.141513 -66.103705 
L 137.768403 -65.129273 
L 133.395294 -64.206576 
L 129.022185 -63.333713 
L 124.649076 -62.508747 
L 120.275966 -61.729725 
L 115.902857 -60.994687 
L 111.529748 -60.301684 
L 107.156639 -59.648788 
L 102.783529 -59.034098 
L 98.41042 -58.455751 
L 94.037311 -57.911928 
L 89.664202 -57.40086 
L 85.291092 -56.920831 
L 80.917983 -56.470183 
L 76.544874 -56.047317 
L 72.171765 -55.650697 
L 67.798655 -55.278848 
L 63.425546 -54.93036 
L 59.052437 -54.603883 
L 54.679328 -54.298132 
L 50.306218 -54.011884 
L 45.933109 -53.743975 
L 41.56 -53.493299 
z
" style="stroke: #bfbfbf"/>
    </defs>
    <g clip-path="url(#pf44816304a)">
     <use xlink:href="#m08bffff5c6" x="0" y="216" style="fill: #bfbfbf; stroke: #bfbfbf"/>
    </g>
   </g>
   <g id="matplotlib.axis_1">
    <g id="xtick_1">
     <g id="line2d_1">
      <defs>
       <path id="me19959c7bd" d="M 0 0 
L 0 3.5 
" style="stroke: #000000; stroke-width: 0.8"/>
      </defs>
      <g>
       <use xlink:href="#me19959c7bd" x="45.933109" y="166.04" style="stroke: #000000; stroke-width: 0.8"/>
      </g>
     </g>
     <g id="text_1">
      <!-- 15 -->
      <g transform="translate(37.661859 182.917969)scale(0.13 -0.13)">
       <defs>
        <path id="DejaVuSans-31" d="M 794 531 
L 1825 531 
L 1825 4091 
L 703 3866 
L 703 4441 
L 1819 4666 
L 2450 4666 
L 2450 531 
L 3481 531 
L 3481 0 
L 794 0 
L 794 531 
z
" transform="scale(0.015625)"/>
        <path id="DejaVuSans-35" d="M 691 4666 
L 3169 4666 
L 3169 4134 
L 1269 4134 
L 1269 2991 
Q 1406 3038 1543 3061 
Q 1681 3084 1819 3084 
Q 2600 3084 3056 2656 
Q 3513 2228 3513 1497 
Q 3513 744 3044 326 
Q 2575 -91 1722 -91 
Q 1428 -91 1123 -41 
Q 819 9 494 109 
L 494 744 
Q 775 591 1075 516 
Q 1375 441 1709 441 
Q 2250 441 2565 725 
Q 2881 1009 2881 1497 
Q 2881 1984 2565 2268 
Q 2250 2553 1709 2553 
Q 1456 2553 1204 2497 
Q 953 2441 691 2322 
L 691 4666 
z
" transform="scale(0.015625)"/>
       </defs>
       <use xlink:href="#DejaVuSans-31"/>
       <use xlink:href="#DejaVuSans-35" x="63.623047"/>
      </g>
     </g>
    </g>
    <g id="xtick_2">
     <g id="line2d_2">
      <g>
       <use xlink:href="#me19959c7bd" x="120.275966" y="166.04" style="stroke: #000000; stroke-width: 0.8"/>
      </g>
     </g>
     <g id="text_2">
      <!-- Jan -->
      <g transform="translate(110.25581 182.917969)scale(0.13 -0.13)">
       <defs>
        <path id="DejaVuSans-4a" d="M 628 4666 
L 1259 4666 
L 1259 325 
Q 1259 -519 939 -900 
Q 619 -1281 -91 -1281 
L -331 -1281 
L -331 -750 
L -134 -750 
Q 284 -750 456 -515 
Q 628 -281 628 325 
L 628 4666 
z
" transform="scale(0.015625)"/>
        <path id="DejaVuSans-61" d="M 2194 1759 
Q 1497 1759 1228 1600 
Q 959 1441 959 1056 
Q 959 750 1161 570 
Q 1363 391 1709 391 
Q 2188 391 2477 730 
Q 2766 1069 2766 1631 
L 2766 1759 
L 2194 1759 
z
M 3341 1997 
L 3341 0 
L 2766 0 
L 2766 531 
Q 2569 213 2275 61 
Q 1981 -91 1556 -91 
Q 1019 -91 701 211 
Q 384 513 384 1019 
Q 384 1609 779 1909 
Q 1175 2209 1959 2209 
L 2766 2209 
L 2766 2266 
Q 2766 2663 2505 2880 
Q 2244 3097 1772 3097 
Q 1472 3097 1187 3025 
Q 903 2953 641 2809 
L 641 3341 
Q 956 3463 1253 3523 
Q 1550 3584 1831 3584 
Q 2591 3584 2966 3190 
Q 3341 2797 3341 1997 
z
" transform="scale(0.015625)"/>
        <path id="DejaVuSans-6e" d="M 3513 2113 
L 3513 0 
L 2938 0 
L 2938 2094 
Q 2938 2591 2744 2837 
Q 2550 3084 2163 3084 
Q 1697 3084 1428 2787 
Q 1159 2491 1159 1978 
L 1159 0 
L 581 0 
L 581 3500 
L 1159 3500 
L 1159 2956 
Q 1366 3272 1645 3428 
Q 1925 3584 2291 3584 
Q 2894 3584 3203 3211 
Q 3513 2838 3513 2113 
z
" transform="scale(0.015625)"/>
       </defs>
       <use xlink:href="#DejaVuSans-4a"/>
       <use xlink:href="#DejaVuSans-61" x="29.492188"/>
       <use xlink:href="#DejaVuSans-6e" x="90.771484"/>
      </g>
     </g>
    </g>
    <g id="xtick_3">
     <g id="line2d_3">
      <g>
       <use xlink:href="#me19959c7bd" x="181.499496" y="166.04" style="stroke: #000000; stroke-width: 0.8"/>
      </g>
     </g>
     <g id="text_3">
      <!-- 15 -->
      <g transform="translate(173.228246 182.917969)scale(0.13 -0.13)">
       <use xlink:href="#DejaVuSans-31"/>
       <use xlink:href="#DejaVuSans-35" x="63.623047"/>
      </g>
     </g>
    </g>
    <g id="xtick_4">
     <g id="line2d_4">
      <g>
       <use xlink:href="#me19959c7bd" x="255.842353" y="166.04" style="stroke: #000000; stroke-width: 0.8"/>
      </g>
     </g>
     <g id="text_4">
      <!-- Feb -->
      <g transform="translate(244.335322 182.917969)scale(0.13 -0.13)">
       <defs>
        <path id="DejaVuSans-46" d="M 628 4666 
L 3309 4666 
L 3309 4134 
L 1259 4134 
L 1259 2759 
L 3109 2759 
L 3109 2228 
L 1259 2228 
L 1259 0 
L 628 0 
L 628 4666 
z
" transform="scale(0.015625)"/>
        <path id="DejaVuSans-65" d="M 3597 1894 
L 3597 1613 
L 953 1613 
Q 991 1019 1311 708 
Q 1631 397 2203 397 
Q 2534 397 2845 478 
Q 3156 559 3463 722 
L 3463 178 
Q 3153 47 2828 -22 
Q 2503 -91 2169 -91 
Q 1331 -91 842 396 
Q 353 884 353 1716 
Q 353 2575 817 3079 
Q 1281 3584 2069 3584 
Q 2775 3584 3186 3129 
Q 3597 2675 3597 1894 
z
M 3022 2063 
Q 3016 2534 2758 2815 
Q 2500 3097 2075 3097 
Q 1594 3097 1305 2825 
Q 1016 2553 972 2059 
L 3022 2063 
z
" transform="scale(0.015625)"/>
        <path id="DejaVuSans-62" d="M 3116 1747 
Q 3116 2381 2855 2742 
Q 2594 3103 2138 3103 
Q 1681 3103 1420 2742 
Q 1159 2381 1159 1747 
Q 1159 1113 1420 752 
Q 1681 391 2138 391 
Q 2594 391 2855 752 
Q 3116 1113 3116 1747 
z
M 1159 2969 
Q 1341 3281 1617 3432 
Q 1894 3584 2278 3584 
Q 2916 3584 3314 3078 
Q 3713 2572 3713 1747 
Q 3713 922 3314 415 
Q 2916 -91 2278 -91 
Q 1894 -91 1617 61 
Q 1341 213 1159 525 
L 1159 0 
L 581 0 
L 581 4863 
L 1159 4863 
L 1159 2969 
z
" transform="scale(0.015625)"/>
       </defs>
       <use xlink:href="#DejaVuSans-46"/>
       <use xlink:href="#DejaVuSans-65" x="52.019531"/>
       <use xlink:href="#DejaVuSans-62" x="113.542969"/>
      </g>
     </g>
    </g>
    <g id="xtick_5">
     <g id="line2d_5">
      <g>
       <use xlink:href="#me19959c7bd" x="317.065882" y="166.04" style="stroke: #000000; stroke-width: 0.8"/>
      </g>
     </g>
     <g id="text_5">
      <!-- 15 -->
      <g transform="translate(308.794632 182.917969)scale(0.13 -0.13)">
       <use xlink:href="#DejaVuSans-31"/>
       <use xlink:href="#DejaVuSans-35" x="63.623047"/>
      </g>
     </g>
    </g>
    <g id="xtick_6">
     <g id="line2d_6">
      <g>
       <use xlink:href="#me19959c7bd" x="378.289412" y="166.04" style="stroke: #000000; stroke-width: 0.8"/>
      </g>
     </g>
     <g id="text_6">
      <!-- Mar -->
      <g transform="translate(366.02574 182.917969)scale(0.13 -0.13)">
       <defs>
        <path id="DejaVuSans-4d" d="M 628 4666 
L 1569 4666 
L 2759 1491 
L 3956 4666 
L 4897 4666 
L 4897 0 
L 4281 0 
L 4281 4097 
L 3078 897 
L 2444 897 
L 1241 4097 
L 1241 0 
L 628 0 
L 628 4666 
z
" transform="scale(0.015625)"/>
        <path id="DejaVuSans-72" d="M 2631 2963 
Q 2534 3019 2420 3045 
Q 2306 3072 2169 3072 
Q 1681 3072 1420 2755 
Q 1159 2438 1159 1844 
L 1159 0 
L 581 0 
L 581 3500 
L 1159 3500 
L 1159 2956 
Q 1341 3275 1631 3429 
Q 1922 3584 2338 3584 
Q 2397 3584 2469 3576 
Q 2541 3569 2628 3553 
L 2631 2963 
z
" transform="scale(0.015625)"/>
       </defs>
       <use xlink:href="#DejaVuSans-4d"/>
       <use xlink:href="#DejaVuSans-61" x="86.279297"/>
       <use xlink:href="#DejaVuSans-72" x="147.558594"/>
      </g>
     </g>
    </g>
    <g id="xtick_7">
     <g id="line2d_7">
      <g>
       <use xlink:href="#me19959c7bd" x="439.512941" y="166.04" style="stroke: #000000; stroke-width: 0.8"/>
      </g>
     </g>
     <g id="text_7">
      <!-- 15 -->
      <g transform="translate(431.241691 182.917969)scale(0.13 -0.13)">
       <use xlink:href="#DejaVuSans-31"/>
       <use xlink:href="#DejaVuSans-35" x="63.623047"/>
      </g>
     </g>
    </g>
    <g id="xtick_8">
     <g id="line2d_8">
      <g>
       <use xlink:href="#me19959c7bd" x="513.855798" y="166.04" style="stroke: #000000; stroke-width: 0.8"/>
      </g>
     </g>
     <g id="text_8">
      <!-- Apr -->
      <g transform="translate(502.610798 182.917969)scale(0.13 -0.13)">
       <defs>
        <path id="DejaVuSans-41" d="M 2188 4044 
L 1331 1722 
L 3047 1722 
L 2188 4044 
z
M 1831 4666 
L 2547 4666 
L 4325 0 
L 3669 0 
L 3244 1197 
L 1141 1197 
L 716 0 
L 50 0 
L 1831 4666 
z
" transform="scale(0.015625)"/>
        <path id="DejaVuSans-70" d="M 1159 525 
L 1159 -1331 
L 581 -1331 
L 581 3500 
L 1159 3500 
L 1159 2969 
Q 1341 3281 1617 3432 
Q 1894 3584 2278 3584 
Q 2916 3584 3314 3078 
Q 3713 2572 3713 1747 
Q 3713 922 3314 415 
Q 2916 -91 2278 -91 
Q 1894 -91 1617 61 
Q 1341 213 1159 525 
z
M 3116 1747 
Q 3116 2381 2855 2742 
Q 2594 3103 2138 3103 
Q 1681 3103 1420 2742 
Q 1159 2381 1159 1747 
Q 1159 1113 1420 752 
Q 1681 391 2138 391 
Q 2594 391 2855 752 
Q 3116 1113 3116 1747 
z
" transform="scale(0.015625)"/>
       </defs>
       <use xlink:href="#DejaVuSans-41"/>
       <use xlink:href="#DejaVuSans-70" x="68.408203"/>
       <use xlink:href="#DejaVuSans-72" x="131.884766"/>
      </g>
     </g>
    </g>
    <g id="text_9">
     <!-- 2021-Apr -->
     <g transform="translate(501.987344 198.499531)scale(0.13 -0.13)">
      <defs>
       <path id="DejaVuSans-32" d="M 1228 531 
L 3431 531 
L 3431 0 
L 469 0 
L 469 531 
Q 828 903 1448 1529 
Q 2069 2156 2228 2338 
Q 2531 2678 2651 2914 
Q 2772 3150 2772 3378 
Q 2772 3750 2511 3984 
Q 2250 4219 1831 4219 
Q 1534 4219 1204 4116 
Q 875 4013 500 3803 
L 500 4441 
Q 881 4594 1212 4672 
Q 1544 4750 1819 4750 
Q 2544 4750 2975 4387 
Q 3406 4025 3406 3419 
Q 3406 3131 3298 2873 
Q 3191 2616 2906 2266 
Q 2828 2175 2409 1742 
Q 1991 1309 1228 531 
z
" transform="scale(0.015625)"/>
       <path id="DejaVuSans-30" d="M 2034 4250 
Q 1547 4250 1301 3770 
Q 1056 3291 1056 2328 
Q 1056 1369 1301 889 
Q 1547 409 2034 409 
Q 2525 409 2770 889 
Q 3016 1369 3016 2328 
Q 3016 3291 2770 3770 
Q 2525 4250 2034 4250 
z
M 2034 4750 
Q 2819 4750 3233 4129 
Q 3647 3509 3647 2328 
Q 3647 1150 3233 529 
Q 2819 -91 2034 -91 
Q 1250 -91 836 529 
Q 422 1150 422 2328 
Q 422 3509 836 4129 
Q 1250 4750 2034 4750 
z
" transform="scale(0.015625)"/>
       <path id="DejaVuSans-2d" d="M 313 2009 
L 1997 2009 
L 1997 1497 
L 313 1497 
L 313 2009 
z
" transform="scale(0.015625)"/>
      </defs>
      <use xlink:href="#DejaVuSans-32"/>
      <use xlink:href="#DejaVuSans-30" x="63.623047"/>
      <use xlink:href="#DejaVuSans-32" x="127.246094"/>
      <use xlink:href="#DejaVuSans-31" x="190.869141"/>
      <use xlink:href="#DejaVuSans-2d" x="254.492188"/>
      <use xlink:href="#DejaVuSans-41" x="288.326172"/>
      <use xlink:href="#DejaVuSans-70" x="356.734375"/>
      <use xlink:href="#DejaVuSans-72" x="420.210938"/>
     </g>
    </g>
   </g>
   <g id="matplotlib.axis_2">
    <g id="ytick_1">
     <g id="line2d_9">
      <defs>
       <path id="mf12f33112a" d="M 0 0 
L -3.5 0 
" style="stroke: #000000; stroke-width: 0.8"/>
      </defs>
      <g>
       <use xlink:href="#mf12f33112a" x="41.56" y="166.04" style="stroke: #000000; stroke-width: 0.8"/>
      </g>
     </g>
     <g id="text_10">
      <!-- 0.0 -->
      <g transform="translate(13.885938 170.978984)scale(0.13 -0.13)">
       <defs>
        <path id="DejaVuSans-2e" d="M 684 794 
L 1344 794 
L 1344 0 
L 684 0 
L 684 794 
z
" transform="scale(0.015625)"/>
       </defs>
       <use xlink:href="#DejaVuSans-30"/>
       <use xlink:href="#DejaVuSans-2e" x="63.623047"/>
       <use xlink:href="#DejaVuSans-30" x="95.410156"/>
      </g>
     </g>
    </g>
    <g id="ytick_2">
     <g id="line2d_10">
      <g>
       <use xlink:href="#mf12f33112a" x="41.56" y="139.144" style="stroke: #000000; stroke-width: 0.8"/>
      </g>
     </g>
     <g id="text_11">
      <!-- 0.2 -->
      <g transform="translate(13.885938 144.082984)scale(0.13 -0.13)">
       <use xlink:href="#DejaVuSans-30"/>
       <use xlink:href="#DejaVuSans-2e" x="63.623047"/>
       <use xlink:href="#DejaVuSans-32" x="95.410156"/>
      </g>
     </g>
    </g>
    <g id="ytick_3">
     <g id="line2d_11">
      <g>
       <use xlink:href="#mf12f33112a" x="41.56" y="112.248" style="stroke: #000000; stroke-width: 0.8"/>
      </g>
     </g>
     <g id="text_12">
      <!-- 0.4 -->
      <g transform="translate(13.885938 117.186984)scale(0.13 -0.13)">
       <defs>
        <path id="DejaVuSans-34" d="M 2419 4116 
L 825 1625 
L 2419 1625 
L 2419 4116 
z
M 2253 4666 
L 3047 4666 
L 3047 1625 
L 3713 1625 
L 3713 1100 
L 3047 1100 
L 3047 0 
L 2419 0 
L 2419 1100 
L 313 1100 
L 313 1709 
L 2253 4666 
z
" transform="scale(0.015625)"/>
       </defs>
       <use xlink:href="#DejaVuSans-30"/>
       <use xlink:href="#DejaVuSans-2e" x="63.623047"/>
       <use xlink:href="#DejaVuSans-34" x="95.410156"/>
      </g>
     </g>
    </g>
    <g id="ytick_4">
     <g id="line2d_12">
      <g>
       <use xlink:href="#mf12f33112a" x="41.56" y="85.352" style="stroke: #000000; stroke-width: 0.8"/>
      </g>
     </g>
     <g id="text_13">
      <!-- 0.6 -->
      <g transform="translate(13.885938 90.290984)scale(0.13 -0.13)">
       <defs>
        <path id="DejaVuSans-36" d="M 2113 2584 
Q 1688 2584 1439 2293 
Q 1191 2003 1191 1497 
Q 1191 994 1439 701 
Q 1688 409 2113 409 
Q 2538 409 2786 701 
Q 3034 994 3034 1497 
Q 3034 2003 2786 2293 
Q 2538 2584 2113 2584 
z
M 3366 4563 
L 3366 3988 
Q 3128 4100 2886 4159 
Q 2644 4219 2406 4219 
Q 1781 4219 1451 3797 
Q 1122 3375 1075 2522 
Q 1259 2794 1537 2939 
Q 1816 3084 2150 3084 
Q 2853 3084 3261 2657 
Q 3669 2231 3669 1497 
Q 3669 778 3244 343 
Q 2819 -91 2113 -91 
Q 1303 -91 875 529 
Q 447 1150 447 2328 
Q 447 3434 972 4092 
Q 1497 4750 2381 4750 
Q 2619 4750 2861 4703 
Q 3103 4656 3366 4563 
z
" transform="scale(0.015625)"/>
       </defs>
       <use xlink:href="#DejaVuSans-30"/>
       <use xlink:href="#DejaVuSans-2e" x="63.623047"/>
       <use xlink:href="#DejaVuSans-36" x="95.410156"/>
      </g>
     </g>
    </g>
    <g id="ytick_5">
     <g id="line2d_13">
      <g>
       <use xlink:href="#mf12f33112a" x="41.56" y="58.456" style="stroke: #000000; stroke-width: 0.8"/>
      </g>
     </g>
     <g id="text_14">
      <!-- 0.8 -->
      <g transform="translate(13.885938 63.394984)scale(0.13 -0.13)">
       <defs>
        <path id="DejaVuSans-38" d="M 2034 2216 
Q 1584 2216 1326 1975 
Q 1069 1734 1069 1313 
Q 1069 891 1326 650 
Q 1584 409 2034 409 
Q 2484 409 2743 651 
Q 3003 894 3003 1313 
Q 3003 1734 2745 1975 
Q 2488 2216 2034 2216 
z
M 1403 2484 
Q 997 2584 770 2862 
Q 544 3141 544 3541 
Q 544 4100 942 4425 
Q 1341 4750 2034 4750 
Q 2731 4750 3128 4425 
Q 3525 4100 3525 3541 
Q 3525 3141 3298 2862 
Q 3072 2584 2669 2484 
Q 3125 2378 3379 2068 
Q 3634 1759 3634 1313 
Q 3634 634 3220 271 
Q 2806 -91 2034 -91 
Q 1263 -91 848 271 
Q 434 634 434 1313 
Q 434 1759 690 2068 
Q 947 2378 1403 2484 
z
M 1172 3481 
Q 1172 3119 1398 2916 
Q 1625 2713 2034 2713 
Q 2441 2713 2670 2916 
Q 2900 3119 2900 3481 
Q 2900 3844 2670 4047 
Q 2441 4250 2034 4250 
Q 1625 4250 1398 4047 
Q 1172 3844 1172 3481 
z
" transform="scale(0.015625)"/>
       </defs>
       <use xlink:href="#DejaVuSans-30"/>
       <use xlink:href="#DejaVuSans-2e" x="63.623047"/>
       <use xlink:href="#DejaVuSans-38" x="95.410156"/>
      </g>
     </g>
    </g>
    <g id="ytick_6">
     <g id="line2d_14">
      <g>
       <use xlink:href="#mf12f33112a" x="41.56" y="31.56" style="stroke: #000000; stroke-width: 0.8"/>
      </g>
     </g>
     <g id="text_15">
      <!-- 1.0 -->
      <g transform="translate(13.885938 36.498984)scale(0.13 -0.13)">
       <use xlink:href="#DejaVuSans-31"/>
       <use xlink:href="#DejaVuSans-2e" x="63.623047"/>
       <use xlink:href="#DejaVuSans-30" x="95.410156"/>
      </g>
     </g>
    </g>
   </g>
   <g id="line2d_15">
    <path d="M 41.56 162.506701 
L 45.933109 162.256025 
L 50.306218 161.988116 
L 54.679328 161.701868 
L 59.052437 161.396117 
L 63.425546 161.06964 
L 67.798655 160.721152 
L 72.171765 160.349303 
L 76.544874 159.952683 
L 80.917983 159.529817 
L 85.291092 159.079169 
L 89.664202 158.59914 
L 94.037311 158.088072 
L 98.41042 157.544249 
L 102.783529 156.965902 
L 107.156639 156.351212 
L 111.529748 155.698316 
L 115.902857 155.005313 
L 120.275966 154.270275 
L 124.649076 153.491253 
L 129.022185 152.666287 
L 133.395294 151.793424 
L 137.768403 150.870727 
L 142.141513 149.896295 
L 146.514622 148.868277 
L 150.887731 147.784895 
L 155.26084 146.644461 
L 159.63395 145.445407 
L 164.007059 144.186302 
L 168.380168 142.865883 
L 172.753277 141.483078 
L 177.126387 140.037037 
L 181.499496 138.527158 
L 185.872605 136.953115 
L 190.245714 135.314886 
L 194.618824 133.612778 
L 198.991933 131.847451 
L 203.365042 130.01994 
L 207.738151 128.131675 
L 212.111261 126.184491 
L 216.48437 124.180642 
L 220.857479 122.122803 
L 225.230588 120.014072 
L 229.603697 117.857957 
L 233.976807 115.658367 
L 238.349916 113.419591 
L 242.723025 111.146268 
L 247.096134 108.843355 
L 251.469244 106.516087 
L 255.842353 104.169934 
L 260.215462 101.810547 
L 264.588571 99.443709 
L 268.961681 97.075274 
L 273.33479 94.711114 
L 277.707899 92.357057 
L 282.081008 90.018834 
L 286.454118 87.702019 
L 290.827227 85.41198 
L 295.200336 83.153831 
L 299.573445 80.932388 
L 303.946555 78.752135 
L 308.319664 76.61719 
L 312.692773 74.53128 
L 317.065882 72.497729 
L 321.438992 70.519441 
L 325.812101 68.5989 
L 330.18521 66.738166 
L 334.558319 64.938889 
L 338.931429 63.202316 
L 343.304538 61.529309 
L 347.677647 59.920363 
L 352.050756 58.375633 
L 356.423866 56.894954 
L 360.796975 55.47787 
L 365.170084 54.123664 
L 369.543193 52.83138 
L 373.916303 51.599856 
L 378.289412 50.427748 
L 382.662521 49.313561 
L 387.03563 48.255668 
L 391.408739 47.252337 
L 395.781849 46.301756 
L 400.154958 45.402047 
L 404.528067 44.551291 
L 408.901176 43.747541 
L 413.274286 42.98884 
L 417.647395 42.273232 
L 422.020504 41.598776 
L 426.393613 40.963554 
L 430.766723 40.365684 
L 435.139832 39.80332 
L 439.512941 39.274666 
L 443.88605 38.777976 
L 448.25916 38.311562 
L 452.632269 37.873791 
L 457.005378 37.463094 
L 461.378487 37.077961 
L 465.751597 36.716947 
L 470.124706 36.378671 
L 474.497815 36.061811 
L 478.870924 35.765112 
L 483.244034 35.487376 
L 487.617143 35.227467 
L 491.990252 34.984308 
L 496.363361 34.756876 
L 500.736471 34.544206 
L 505.10958 34.345384 
L 509.482689 34.159546 
L 513.855798 33.985878 
L 518.228908 33.823614 
L 522.602017 33.67203 
L 526.975126 33.530445 
L 531.348235 33.39822 
L 535.721345 33.274753 
L 540.094454 33.159479 
L 544.467563 33.051867 
L 548.840672 32.951419 
L 553.213782 32.857669 
L 557.586891 32.770178 
L 561.96 32.688535 
" clip-path="url(#pf44816304a)" style="fill: none; stroke: #151624; stroke-width: 1.5; stroke-linecap: square"/>
   </g>
   <g id="LineCollection_1">
    <path d="M 80.917983 166.04 
L 80.917983 59.336752 
" clip-path="url(#pf44816304a)" style="fill: none; stroke: #0d4a70; stroke-width: 1.5"/>
    <path d="M 85.291092 166.04 
L 85.291092 135.365734 
" clip-path="url(#pf44816304a)" style="fill: none; stroke: #0d4a70; stroke-width: 1.5"/>
    <path d="M 89.664202 166.04 
L 89.664202 128.717389 
" clip-path="url(#pf44816304a)" style="fill: none; stroke: #0d4a70; stroke-width: 1.5"/>
    <path d="M 94.037311 147.63718 
L 94.037311 72.676237 
" clip-path="url(#pf44816304a)" style="fill: none; stroke: #0d4a70; stroke-width: 1.5"/>
    <path d="M 98.41042 166.04 
L 98.41042 77.603293 
" clip-path="url(#pf44816304a)" style="fill: none; stroke: #0d4a70; stroke-width: 1.5"/>
    <path d="M 102.783529 164.711984 
L 102.783529 131.401582 
" clip-path="url(#pf44816304a)" style="fill: none; stroke: #0d4a70; stroke-width: 1.5"/>
    <path d="M 107.156639 166.04 
L 107.156639 107.610798 
" clip-path="url(#pf44816304a)" style="fill: none; stroke: #0d4a70; stroke-width: 1.5"/>
    <path d="M 111.529748 166.04 
L 111.529748 59.336752 
" clip-path="url(#pf44816304a)" style="fill: none; stroke: #0d4a70; stroke-width: 1.5"/>
    <path d="M 115.902857 162.788273 
L 115.902857 130.004765 
" clip-path="url(#pf44816304a)" style="fill: none; stroke: #0d4a70; stroke-width: 1.5"/>
    <path d="M 120.275966 165.002263 
L 120.275966 137.811095 
" clip-path="url(#pf44816304a)" style="fill: none; stroke: #0d4a70; stroke-width: 1.5"/>
    <path d="M 124.649076 166.04 
L 124.649076 143.423258 
" clip-path="url(#pf44816304a)" style="fill: none; stroke: #0d4a70; stroke-width: 1.5"/>
    <path d="M 142.141513 138.263248 
L 142.141513 31.56 
" clip-path="url(#pf44816304a)" style="fill: none; stroke: #0d4a70; stroke-width: 1.5"/>
    <path d="M 150.887731 153.026181 
L 150.887731 71.903101 
" clip-path="url(#pf44816304a)" style="fill: none; stroke: #0d4a70; stroke-width: 1.5"/>
    <path d="M 155.26084 163.636199 
L 155.26084 138.177577 
" clip-path="url(#pf44816304a)" style="fill: none; stroke: #0d4a70; stroke-width: 1.5"/>
    <path d="M 159.63395 154.279168 
L 159.63395 123.073653 
" clip-path="url(#pf44816304a)" style="fill: none; stroke: #0d4a70; stroke-width: 1.5"/>
    <path d="M 164.007059 155.750657 
L 164.007059 124.167657 
" clip-path="url(#pf44816304a)" style="fill: none; stroke: #0d4a70; stroke-width: 1.5"/>
    <path d="M 168.380168 142.90246 
L 168.380168 96.66213 
" clip-path="url(#pf44816304a)" style="fill: none; stroke: #0d4a70; stroke-width: 1.5"/>
    <path d="M 172.753277 159.812933 
L 172.753277 135.655227 
" clip-path="url(#pf44816304a)" style="fill: none; stroke: #0d4a70; stroke-width: 1.5"/>
    <path d="M 177.126387 161.881583 
L 177.126387 141.161272 
" clip-path="url(#pf44816304a)" style="fill: none; stroke: #0d4a70; stroke-width: 1.5"/>
    <path d="M 181.499496 155.333821 
L 181.499496 131.447393 
" clip-path="url(#pf44816304a)" style="fill: none; stroke: #0d4a70; stroke-width: 1.5"/>
    <path d="M 185.872605 149.916241 
L 185.872605 119.101065 
" clip-path="url(#pf44816304a)" style="fill: none; stroke: #0d4a70; stroke-width: 1.5"/>
    <path d="M 190.245714 145.108752 
L 190.245714 105.02036 
" clip-path="url(#pf44816304a)" style="fill: none; stroke: #0d4a70; stroke-width: 1.5"/>
    <path d="M 194.618824 144.248236 
L 194.618824 118.10535 
" clip-path="url(#pf44816304a)" style="fill: none; stroke: #0d4a70; stroke-width: 1.5"/>
    <path d="M 198.991933 148.294804 
L 198.991933 119.054474 
" clip-path="url(#pf44816304a)" style="fill: none; stroke: #0d4a70; stroke-width: 1.5"/>
    <path d="M 203.365042 156.240071 
L 203.365042 131.98366 
" clip-path="url(#pf44816304a)" style="fill: none; stroke: #0d4a70; stroke-width: 1.5"/>
    <path d="M 207.738151 160.849464 
L 207.738151 135.717878 
" clip-path="url(#pf44816304a)" style="fill: none; stroke: #0d4a70; stroke-width: 1.5"/>
    <path d="M 212.111261 132.676137 
L 212.111261 72.061315 
" clip-path="url(#pf44816304a)" style="fill: none; stroke: #0d4a70; stroke-width: 1.5"/>
    <path d="M 216.48437 149.813805 
L 216.48437 113.569512 
" clip-path="url(#pf44816304a)" style="fill: none; stroke: #0d4a70; stroke-width: 1.5"/>
    <path d="M 220.857479 139.777805 
L 220.857479 104.629969 
" clip-path="url(#pf44816304a)" style="fill: none; stroke: #0d4a70; stroke-width: 1.5"/>
    <path d="M 225.230588 147.448136 
L 225.230588 113.131081 
" clip-path="url(#pf44816304a)" style="fill: none; stroke: #0d4a70; stroke-width: 1.5"/>
    <path d="M 229.603697 129.41357 
L 229.603697 86.437608 
" clip-path="url(#pf44816304a)" style="fill: none; stroke: #0d4a70; stroke-width: 1.5"/>
    <path d="M 233.976807 123.550968 
L 233.976807 88.498512 
" clip-path="url(#pf44816304a)" style="fill: none; stroke: #0d4a70; stroke-width: 1.5"/>
    <path d="M 238.349916 127.082889 
L 238.349916 89.790901 
" clip-path="url(#pf44816304a)" style="fill: none; stroke: #0d4a70; stroke-width: 1.5"/>
    <path d="M 242.723025 126.921068 
L 242.723025 94.218806 
" clip-path="url(#pf44816304a)" style="fill: none; stroke: #0d4a70; stroke-width: 1.5"/>
    <path d="M 247.096134 123.003086 
L 247.096134 88.546769 
" clip-path="url(#pf44816304a)" style="fill: none; stroke: #0d4a70; stroke-width: 1.5"/>
    <path d="M 251.469244 120.498112 
L 251.469244 80.240903 
" clip-path="url(#pf44816304a)" style="fill: none; stroke: #0d4a70; stroke-width: 1.5"/>
    <path d="M 255.842353 130.180049 
L 255.842353 81.408148 
" clip-path="url(#pf44816304a)" style="fill: none; stroke: #0d4a70; stroke-width: 1.5"/>
    <path d="M 260.215462 111.066386 
L 260.215462 59.46596 
" clip-path="url(#pf44816304a)" style="fill: none; stroke: #0d4a70; stroke-width: 1.5"/>
    <path d="M 264.588571 94.052863 
L 264.588571 48.435379 
" clip-path="url(#pf44816304a)" style="fill: none; stroke: #0d4a70; stroke-width: 1.5"/>
    <path d="M 268.961681 107.809099 
L 268.961681 70.517111 
" clip-path="url(#pf44816304a)" style="fill: none; stroke: #0d4a70; stroke-width: 1.5"/>
    <path d="M 273.33479 100.110893 
L 273.33479 65.611035 
" clip-path="url(#pf44816304a)" style="fill: none; stroke: #0d4a70; stroke-width: 1.5"/>
    <path d="M 277.707899 93.793966 
L 277.707899 61.80967 
" clip-path="url(#pf44816304a)" style="fill: none; stroke: #0d4a70; stroke-width: 1.5"/>
    <path d="M 282.081008 144.059605 
L 282.081008 83.690396 
" clip-path="url(#pf44816304a)" style="fill: none; stroke: #0d4a70; stroke-width: 1.5"/>
    <path d="M 286.454118 101.351465 
L 286.454118 51.12378 
" clip-path="url(#pf44816304a)" style="fill: none; stroke: #0d4a70; stroke-width: 1.5"/>
    <path d="M 290.827227 88.184901 
L 290.827227 49.381829 
" clip-path="url(#pf44816304a)" style="fill: none; stroke: #0d4a70; stroke-width: 1.5"/>
    <path d="M 295.200336 89.978049 
L 295.200336 45.173464 
" clip-path="url(#pf44816304a)" style="fill: none; stroke: #0d4a70; stroke-width: 1.5"/>
    <path d="M 299.573445 89.164449 
L 299.573445 53.22206 
" clip-path="url(#pf44816304a)" style="fill: none; stroke: #0d4a70; stroke-width: 1.5"/>
    <path d="M 303.946555 89.964238 
L 303.946555 47.020243 
" clip-path="url(#pf44816304a)" style="fill: none; stroke: #0d4a70; stroke-width: 1.5"/>
    <path d="M 308.319664 97.4856 
L 308.319664 59.307199 
" clip-path="url(#pf44816304a)" style="fill: none; stroke: #0d4a70; stroke-width: 1.5"/>
    <path d="M 312.692773 122.15497 
L 312.692773 75.44503 
" clip-path="url(#pf44816304a)" style="fill: none; stroke: #0d4a70; stroke-width: 1.5"/>
    <path d="M 317.065882 85.984666 
L 317.065882 43.992441 
" clip-path="url(#pf44816304a)" style="fill: none; stroke: #0d4a70; stroke-width: 1.5"/>
    <path d="M 321.438992 104.044141 
L 321.438992 63.921266 
" clip-path="url(#pf44816304a)" style="fill: none; stroke: #0d4a70; stroke-width: 1.5"/>
    <path d="M 325.812101 103.229345 
L 325.812101 55.729002 
" clip-path="url(#pf44816304a)" style="fill: none; stroke: #0d4a70; stroke-width: 1.5"/>
    <path d="M 330.18521 114.105113 
L 330.18521 58.866496 
" clip-path="url(#pf44816304a)" style="fill: none; stroke: #0d4a70; stroke-width: 1.5"/>
    <path d="M 334.558319 96.314452 
L 334.558319 49.245142 
" clip-path="url(#pf44816304a)" style="fill: none; stroke: #0d4a70; stroke-width: 1.5"/>
    <path d="M 338.931429 93.0404 
L 338.931429 51.326886 
" clip-path="url(#pf44816304a)" style="fill: none; stroke: #0d4a70; stroke-width: 1.5"/>
    <path d="M 343.304538 72.974533 
L 343.304538 44.698955 
" clip-path="url(#pf44816304a)" style="fill: none; stroke: #0d4a70; stroke-width: 1.5"/>
    <path d="M 347.677647 83.186994 
L 347.677647 44.800995 
" clip-path="url(#pf44816304a)" style="fill: none; stroke: #0d4a70; stroke-width: 1.5"/>
    <path d="M 352.050756 86.369918 
L 352.050756 45.824616 
" clip-path="url(#pf44816304a)" style="fill: none; stroke: #0d4a70; stroke-width: 1.5"/>
    <path d="M 356.423866 86.729909 
L 356.423866 48.816088 
" clip-path="url(#pf44816304a)" style="fill: none; stroke: #0d4a70; stroke-width: 1.5"/>
    <path d="M 360.796975 91.643743 
L 360.796975 49.27152 
" clip-path="url(#pf44816304a)" style="fill: none; stroke: #0d4a70; stroke-width: 1.5"/>
    <path d="M 365.170084 89.989202 
L 365.170084 31.56 
" clip-path="url(#pf44816304a)" style="fill: none; stroke: #0d4a70; stroke-width: 1.5"/>
    <path d="M 369.543193 60.912534 
L 369.543193 35.426113 
" clip-path="url(#pf44816304a)" style="fill: none; stroke: #0d4a70; stroke-width: 1.5"/>
    <path d="M 373.916303 61.655648 
L 373.916303 35.538237 
" clip-path="url(#pf44816304a)" style="fill: none; stroke: #0d4a70; stroke-width: 1.5"/>
    <path d="M 378.289412 58.653851 
L 378.289412 33.887925 
" clip-path="url(#pf44816304a)" style="fill: none; stroke: #0d4a70; stroke-width: 1.5"/>
    <path d="M 382.662521 72.043005 
L 382.662521 35.307484 
" clip-path="url(#pf44816304a)" style="fill: none; stroke: #0d4a70; stroke-width: 1.5"/>
    <path d="M 387.03563 71.844552 
L 387.03563 37.163536 
" clip-path="url(#pf44816304a)" style="fill: none; stroke: #0d4a70; stroke-width: 1.5"/>
    <path d="M 391.408739 62.013484 
L 391.408739 34.224326 
" clip-path="url(#pf44816304a)" style="fill: none; stroke: #0d4a70; stroke-width: 1.5"/>
    <path d="M 395.781849 56.147605 
L 395.781849 32.443284 
" clip-path="url(#pf44816304a)" style="fill: none; stroke: #0d4a70; stroke-width: 1.5"/>
    <path d="M 400.154958 57.123877 
L 400.154958 34.866918 
" clip-path="url(#pf44816304a)" style="fill: none; stroke: #0d4a70; stroke-width: 1.5"/>
    <path d="M 404.528067 64.010726 
L 404.528067 37.168162 
" clip-path="url(#pf44816304a)" style="fill: none; stroke: #0d4a70; stroke-width: 1.5"/>
    <path d="M 408.901176 47.784112 
L 408.901176 31.56 
" clip-path="url(#pf44816304a)" style="fill: none; stroke: #0d4a70; stroke-width: 1.5"/>
    <path d="M 413.274286 59.422423 
L 413.274286 33.963801 
" clip-path="url(#pf44816304a)" style="fill: none; stroke: #0d4a70; stroke-width: 1.5"/>
    <path d="M 417.647395 64.128574 
L 417.647395 35.917361 
" clip-path="url(#pf44816304a)" style="fill: none; stroke: #0d4a70; stroke-width: 1.5"/>
    <path d="M 422.020504 70.526795 
L 422.020504 36.943563 
" clip-path="url(#pf44816304a)" style="fill: none; stroke: #0d4a70; stroke-width: 1.5"/>
    <path d="M 426.393613 64.025562 
L 426.393613 34.431832 
" clip-path="url(#pf44816304a)" style="fill: none; stroke: #0d4a70; stroke-width: 1.5"/>
    <path d="M 430.766723 72.876766 
L 430.766723 43.778573 
" clip-path="url(#pf44816304a)" style="fill: none; stroke: #0d4a70; stroke-width: 1.5"/>
    <path d="M 435.139832 51.913546 
L 435.139832 33.248411 
" clip-path="url(#pf44816304a)" style="fill: none; stroke: #0d4a70; stroke-width: 1.5"/>
    <path d="M 439.512941 45.211677 
L 439.512941 31.56 
" clip-path="url(#pf44816304a)" style="fill: none; stroke: #0d4a70; stroke-width: 1.5"/>
    <path d="M 443.88605 67.473884 
L 443.88605 39.094669 
" clip-path="url(#pf44816304a)" style="fill: none; stroke: #0d4a70; stroke-width: 1.5"/>
    <path d="M 448.25916 60.014945 
L 448.25916 36.390817 
" clip-path="url(#pf44816304a)" style="fill: none; stroke: #0d4a70; stroke-width: 1.5"/>
    <path d="M 452.632269 64.694166 
L 452.632269 32.817656 
" clip-path="url(#pf44816304a)" style="fill: none; stroke: #0d4a70; stroke-width: 1.5"/>
    <path d="M 457.005378 70.526795 
L 457.005378 36.943563 
" clip-path="url(#pf44816304a)" style="fill: none; stroke: #0d4a70; stroke-width: 1.5"/>
    <path d="M 461.378487 63.268843 
L 461.378487 37.021678 
" clip-path="url(#pf44816304a)" style="fill: none; stroke: #0d4a70; stroke-width: 1.5"/>
    <path d="M 465.751597 67.042657 
L 465.751597 36.376387 
" clip-path="url(#pf44816304a)" style="fill: none; stroke: #0d4a70; stroke-width: 1.5"/>
    <path d="M 470.124706 57.237083 
L 470.124706 33.749691 
" clip-path="url(#pf44816304a)" style="fill: none; stroke: #0d4a70; stroke-width: 1.5"/>
    <path d="M 474.497815 72.655735 
L 474.497815 38.952957 
" clip-path="url(#pf44816304a)" style="fill: none; stroke: #0d4a70; stroke-width: 1.5"/>
    <path d="M 478.870924 55.369219 
L 478.870924 33.570607 
" clip-path="url(#pf44816304a)" style="fill: none; stroke: #0d4a70; stroke-width: 1.5"/>
    <path d="M 483.244034 45.211677 
L 483.244034 31.56 
" clip-path="url(#pf44816304a)" style="fill: none; stroke: #0d4a70; stroke-width: 1.5"/>
   </g>
   <g id="patch_3">
    <path d="M 41.56 166.04 
L 41.56 31.56 
" style="fill: none; stroke: #000000; stroke-width: 0.8; stroke-linejoin: miter; stroke-linecap: square"/>
   </g>
   <g id="patch_4">
    <path d="M 561.96 166.04 
L 561.96 31.56 
" style="fill: none; stroke: #000000; stroke-width: 0.8; stroke-linejoin: miter; stroke-linecap: square"/>
   </g>
   <g id="patch_5">
    <path d="M 41.56 166.04 
L 561.96 166.04 
" style="fill: none; stroke: #000000; stroke-width: 0.8; stroke-linejoin: miter; stroke-linecap: square"/>
   </g>
   <g id="patch_6">
    <path d="M 41.56 31.56 
L 561.96 31.56 
" style="fill: none; stroke: #000000; stroke-width: 0.8; stroke-linejoin: miter; stroke-linecap: square"/>
   </g>
   <g id="text_16">
    <!-- Geneva - from HUG data -->
    <g transform="translate(205.71275 25.56)scale(0.156 -0.156)">
     <defs>
      <path id="DejaVuSans-47" d="M 3809 666 
L 3809 1919 
L 2778 1919 
L 2778 2438 
L 4434 2438 
L 4434 434 
Q 4069 175 3628 42 
Q 3188 -91 2688 -91 
Q 1594 -91 976 548 
Q 359 1188 359 2328 
Q 359 3472 976 4111 
Q 1594 4750 2688 4750 
Q 3144 4750 3555 4637 
Q 3966 4525 4313 4306 
L 4313 3634 
Q 3963 3931 3569 4081 
Q 3175 4231 2741 4231 
Q 1884 4231 1454 3753 
Q 1025 3275 1025 2328 
Q 1025 1384 1454 906 
Q 1884 428 2741 428 
Q 3075 428 3337 486 
Q 3600 544 3809 666 
z
" transform="scale(0.015625)"/>
      <path id="DejaVuSans-76" d="M 191 3500 
L 800 3500 
L 1894 563 
L 2988 3500 
L 3597 3500 
L 2284 0 
L 1503 0 
L 191 3500 
z
" transform="scale(0.015625)"/>
      <path id="DejaVuSans-20" transform="scale(0.015625)"/>
      <path id="DejaVuSans-66" d="M 2375 4863 
L 2375 4384 
L 1825 4384 
Q 1516 4384 1395 4259 
Q 1275 4134 1275 3809 
L 1275 3500 
L 2222 3500 
L 2222 3053 
L 1275 3053 
L 1275 0 
L 697 0 
L 697 3053 
L 147 3053 
L 147 3500 
L 697 3500 
L 697 3744 
Q 697 4328 969 4595 
Q 1241 4863 1831 4863 
L 2375 4863 
z
" transform="scale(0.015625)"/>
      <path id="DejaVuSans-6f" d="M 1959 3097 
Q 1497 3097 1228 2736 
Q 959 2375 959 1747 
Q 959 1119 1226 758 
Q 1494 397 1959 397 
Q 2419 397 2687 759 
Q 2956 1122 2956 1747 
Q 2956 2369 2687 2733 
Q 2419 3097 1959 3097 
z
M 1959 3584 
Q 2709 3584 3137 3096 
Q 3566 2609 3566 1747 
Q 3566 888 3137 398 
Q 2709 -91 1959 -91 
Q 1206 -91 779 398 
Q 353 888 353 1747 
Q 353 2609 779 3096 
Q 1206 3584 1959 3584 
z
" transform="scale(0.015625)"/>
      <path id="DejaVuSans-6d" d="M 3328 2828 
Q 3544 3216 3844 3400 
Q 4144 3584 4550 3584 
Q 5097 3584 5394 3201 
Q 5691 2819 5691 2113 
L 5691 0 
L 5113 0 
L 5113 2094 
Q 5113 2597 4934 2840 
Q 4756 3084 4391 3084 
Q 3944 3084 3684 2787 
Q 3425 2491 3425 1978 
L 3425 0 
L 2847 0 
L 2847 2094 
Q 2847 2600 2669 2842 
Q 2491 3084 2119 3084 
Q 1678 3084 1418 2786 
Q 1159 2488 1159 1978 
L 1159 0 
L 581 0 
L 581 3500 
L 1159 3500 
L 1159 2956 
Q 1356 3278 1631 3431 
Q 1906 3584 2284 3584 
Q 2666 3584 2933 3390 
Q 3200 3197 3328 2828 
z
" transform="scale(0.015625)"/>
      <path id="DejaVuSans-48" d="M 628 4666 
L 1259 4666 
L 1259 2753 
L 3553 2753 
L 3553 4666 
L 4184 4666 
L 4184 0 
L 3553 0 
L 3553 2222 
L 1259 2222 
L 1259 0 
L 628 0 
L 628 4666 
z
" transform="scale(0.015625)"/>
      <path id="DejaVuSans-55" d="M 556 4666 
L 1191 4666 
L 1191 1831 
Q 1191 1081 1462 751 
Q 1734 422 2344 422 
Q 2950 422 3222 751 
Q 3494 1081 3494 1831 
L 3494 4666 
L 4128 4666 
L 4128 1753 
Q 4128 841 3676 375 
Q 3225 -91 2344 -91 
Q 1459 -91 1007 375 
Q 556 841 556 1753 
L 556 4666 
z
" transform="scale(0.015625)"/>
      <path id="DejaVuSans-64" d="M 2906 2969 
L 2906 4863 
L 3481 4863 
L 3481 0 
L 2906 0 
L 2906 525 
Q 2725 213 2448 61 
Q 2172 -91 1784 -91 
Q 1150 -91 751 415 
Q 353 922 353 1747 
Q 353 2572 751 3078 
Q 1150 3584 1784 3584 
Q 2172 3584 2448 3432 
Q 2725 3281 2906 2969 
z
M 947 1747 
Q 947 1113 1208 752 
Q 1469 391 1925 391 
Q 2381 391 2643 752 
Q 2906 1113 2906 1747 
Q 2906 2381 2643 2742 
Q 2381 3103 1925 3103 
Q 1469 3103 1208 2742 
Q 947 2381 947 1747 
z
" transform="scale(0.015625)"/>
      <path id="DejaVuSans-74" d="M 1172 4494 
L 1172 3500 
L 2356 3500 
L 2356 3053 
L 1172 3053 
L 1172 1153 
Q 1172 725 1289 603 
Q 1406 481 1766 481 
L 2356 481 
L 2356 0 
L 1766 0 
Q 1100 0 847 248 
Q 594 497 594 1153 
L 594 3053 
L 172 3053 
L 172 3500 
L 594 3500 
L 594 4494 
L 1172 4494 
z
" transform="scale(0.015625)"/>
     </defs>
     <use xlink:href="#DejaVuSans-47"/>
     <use xlink:href="#DejaVuSans-65" x="77.490234"/>
     <use xlink:href="#DejaVuSans-6e" x="139.013672"/>
     <use xlink:href="#DejaVuSans-65" x="202.392578"/>
     <use xlink:href="#DejaVuSans-76" x="263.916016"/>
     <use xlink:href="#DejaVuSans-61" x="323.095703"/>
     <use xlink:href="#DejaVuSans-20" x="384.375"/>
     <use xlink:href="#DejaVuSans-2d" x="416.162109"/>
     <use xlink:href="#DejaVuSans-20" x="452.246094"/>
     <use xlink:href="#DejaVuSans-66" x="484.033203"/>
     <use xlink:href="#DejaVuSans-72" x="519.238281"/>
     <use xlink:href="#DejaVuSans-6f" x="558.101562"/>
     <use xlink:href="#DejaVuSans-6d" x="619.283203"/>
     <use xlink:href="#DejaVuSans-20" x="716.695312"/>
     <use xlink:href="#DejaVuSans-48" x="748.482422"/>
     <use xlink:href="#DejaVuSans-55" x="823.677734"/>
     <use xlink:href="#DejaVuSans-47" x="896.871094"/>
     <use xlink:href="#DejaVuSans-20" x="974.361328"/>
     <use xlink:href="#DejaVuSans-64" x="1006.148438"/>
     <use xlink:href="#DejaVuSans-61" x="1069.625"/>
     <use xlink:href="#DejaVuSans-74" x="1130.904297"/>
     <use xlink:href="#DejaVuSans-61" x="1170.113281"/>
    </g>
   </g>
   <g id="legend_1">
    <g id="patch_7">
     <path d="M 271.554219 159.54 
L 552.86 159.54 
Q 555.46 159.54 555.46 156.94 
L 555.46 100.995312 
Q 555.46 98.395312 552.86 98.395312 
L 271.554219 98.395312 
Q 268.954219 98.395312 268.954219 100.995312 
L 268.954219 156.94 
Q 268.954219 159.54 271.554219 159.54 
z
" style="fill: #ffffff; opacity: 0.8; stroke: #cccccc; stroke-linejoin: miter"/>
    </g>
    <g id="line2d_16">
     <path d="M 274.154219 108.923281 
L 287.154219 108.923281 
L 300.154219 108.923281 
" style="fill: none; stroke: #151624; stroke-width: 1.5; stroke-linecap: square"/>
    </g>
    <g id="text_17">
     <!-- Logistic fit -->
     <g transform="translate(310.554219 113.473281)scale(0.13 -0.13)">
      <defs>
       <path id="DejaVuSans-4c" d="M 628 4666 
L 1259 4666 
L 1259 531 
L 3531 531 
L 3531 0 
L 628 0 
L 628 4666 
z
" transform="scale(0.015625)"/>
       <path id="DejaVuSans-67" d="M 2906 1791 
Q 2906 2416 2648 2759 
Q 2391 3103 1925 3103 
Q 1463 3103 1205 2759 
Q 947 2416 947 1791 
Q 947 1169 1205 825 
Q 1463 481 1925 481 
Q 2391 481 2648 825 
Q 2906 1169 2906 1791 
z
M 3481 434 
Q 3481 -459 3084 -895 
Q 2688 -1331 1869 -1331 
Q 1566 -1331 1297 -1286 
Q 1028 -1241 775 -1147 
L 775 -588 
Q 1028 -725 1275 -790 
Q 1522 -856 1778 -856 
Q 2344 -856 2625 -561 
Q 2906 -266 2906 331 
L 2906 616 
Q 2728 306 2450 153 
Q 2172 0 1784 0 
Q 1141 0 747 490 
Q 353 981 353 1791 
Q 353 2603 747 3093 
Q 1141 3584 1784 3584 
Q 2172 3584 2450 3431 
Q 2728 3278 2906 2969 
L 2906 3500 
L 3481 3500 
L 3481 434 
z
" transform="scale(0.015625)"/>
       <path id="DejaVuSans-69" d="M 603 3500 
L 1178 3500 
L 1178 0 
L 603 0 
L 603 3500 
z
M 603 4863 
L 1178 4863 
L 1178 4134 
L 603 4134 
L 603 4863 
z
" transform="scale(0.015625)"/>
       <path id="DejaVuSans-73" d="M 2834 3397 
L 2834 2853 
Q 2591 2978 2328 3040 
Q 2066 3103 1784 3103 
Q 1356 3103 1142 2972 
Q 928 2841 928 2578 
Q 928 2378 1081 2264 
Q 1234 2150 1697 2047 
L 1894 2003 
Q 2506 1872 2764 1633 
Q 3022 1394 3022 966 
Q 3022 478 2636 193 
Q 2250 -91 1575 -91 
Q 1294 -91 989 -36 
Q 684 19 347 128 
L 347 722 
Q 666 556 975 473 
Q 1284 391 1588 391 
Q 1994 391 2212 530 
Q 2431 669 2431 922 
Q 2431 1156 2273 1281 
Q 2116 1406 1581 1522 
L 1381 1569 
Q 847 1681 609 1914 
Q 372 2147 372 2553 
Q 372 3047 722 3315 
Q 1072 3584 1716 3584 
Q 2034 3584 2315 3537 
Q 2597 3491 2834 3397 
z
" transform="scale(0.015625)"/>
       <path id="DejaVuSans-63" d="M 3122 3366 
L 3122 2828 
Q 2878 2963 2633 3030 
Q 2388 3097 2138 3097 
Q 1578 3097 1268 2742 
Q 959 2388 959 1747 
Q 959 1106 1268 751 
Q 1578 397 2138 397 
Q 2388 397 2633 464 
Q 2878 531 3122 666 
L 3122 134 
Q 2881 22 2623 -34 
Q 2366 -91 2075 -91 
Q 1284 -91 818 406 
Q 353 903 353 1747 
Q 353 2603 823 3093 
Q 1294 3584 2113 3584 
Q 2378 3584 2631 3529 
Q 2884 3475 3122 3366 
z
" transform="scale(0.015625)"/>
      </defs>
      <use xlink:href="#DejaVuSans-4c"/>
      <use xlink:href="#DejaVuSans-6f" x="53.962891"/>
      <use xlink:href="#DejaVuSans-67" x="115.144531"/>
      <use xlink:href="#DejaVuSans-69" x="178.621094"/>
      <use xlink:href="#DejaVuSans-73" x="206.404297"/>
      <use xlink:href="#DejaVuSans-74" x="258.503906"/>
      <use xlink:href="#DejaVuSans-69" x="297.712891"/>
      <use xlink:href="#DejaVuSans-63" x="325.496094"/>
      <use xlink:href="#DejaVuSans-20" x="380.476562"/>
      <use xlink:href="#DejaVuSans-66" x="412.263672"/>
      <use xlink:href="#DejaVuSans-69" x="447.46875"/>
      <use xlink:href="#DejaVuSans-74" x="475.251953"/>
     </g>
    </g>
    <g id="patch_8">
     <path d="M 274.154219 132.554844 
L 300.154219 132.554844 
L 300.154219 123.454844 
L 274.154219 123.454844 
z
" style="fill: #bfbfbf; stroke: #bfbfbf; stroke-linejoin: miter"/>
    </g>
    <g id="text_18">
     <!-- Confidence interval -->
     <g transform="translate(310.554219 132.554844)scale(0.13 -0.13)">
      <defs>
       <path id="DejaVuSans-43" d="M 4122 4306 
L 4122 3641 
Q 3803 3938 3442 4084 
Q 3081 4231 2675 4231 
Q 1875 4231 1450 3742 
Q 1025 3253 1025 2328 
Q 1025 1406 1450 917 
Q 1875 428 2675 428 
Q 3081 428 3442 575 
Q 3803 722 4122 1019 
L 4122 359 
Q 3791 134 3420 21 
Q 3050 -91 2638 -91 
Q 1578 -91 968 557 
Q 359 1206 359 2328 
Q 359 3453 968 4101 
Q 1578 4750 2638 4750 
Q 3056 4750 3426 4639 
Q 3797 4528 4122 4306 
z
" transform="scale(0.015625)"/>
       <path id="DejaVuSans-6c" d="M 603 4863 
L 1178 4863 
L 1178 0 
L 603 0 
L 603 4863 
z
" transform="scale(0.015625)"/>
      </defs>
      <use xlink:href="#DejaVuSans-43"/>
      <use xlink:href="#DejaVuSans-6f" x="69.824219"/>
      <use xlink:href="#DejaVuSans-6e" x="131.005859"/>
      <use xlink:href="#DejaVuSans-66" x="194.384766"/>
      <use xlink:href="#DejaVuSans-69" x="229.589844"/>
      <use xlink:href="#DejaVuSans-64" x="257.373047"/>
      <use xlink:href="#DejaVuSans-65" x="320.849609"/>
      <use xlink:href="#DejaVuSans-6e" x="382.373047"/>
      <use xlink:href="#DejaVuSans-63" x="445.751953"/>
      <use xlink:href="#DejaVuSans-65" x="500.732422"/>
      <use xlink:href="#DejaVuSans-20" x="562.255859"/>
      <use xlink:href="#DejaVuSans-69" x="594.042969"/>
      <use xlink:href="#DejaVuSans-6e" x="621.826172"/>
      <use xlink:href="#DejaVuSans-74" x="685.205078"/>
      <use xlink:href="#DejaVuSans-65" x="724.414062"/>
      <use xlink:href="#DejaVuSans-72" x="785.9375"/>
      <use xlink:href="#DejaVuSans-76" x="827.050781"/>
      <use xlink:href="#DejaVuSans-61" x="886.230469"/>
      <use xlink:href="#DejaVuSans-6c" x="947.509766"/>
     </g>
    </g>
    <g id="PathCollection_1">
     <defs>
      <path id="mab287af8e8" d="M 0 1.870829 
C 0.49615 1.870829 0.972045 1.673706 1.322876 1.322876 
C 1.673706 0.972045 1.870829 0.49615 1.870829 0 
C 1.870829 -0.49615 1.673706 -0.972045 1.322876 -1.322876 
C 0.972045 -1.673706 0.49615 -1.870829 0 -1.870829 
C -0.49615 -1.870829 -0.972045 -1.673706 -1.322876 -1.322876 
C -1.673706 -0.972045 -1.870829 -0.49615 -1.870829 0 
C -1.870829 0.49615 -1.673706 0.972045 -1.322876 1.322876 
C -0.972045 1.673706 -0.49615 1.870829 0 1.870829 
z
" style="stroke: #67916e"/>
     </defs>
     <g>
      <use xlink:href="#mab287af8e8" x="287.154219" y="148.223906" style="fill: #67916e; stroke: #67916e"/>
     </g>
    </g>
    <g id="text_19">
     <!-- Estimated daily proportion of B.1.1.7 -->
     <g transform="translate(310.554219 151.636406)scale(0.13 -0.13)">
      <defs>
       <path id="DejaVuSans-45" d="M 628 4666 
L 3578 4666 
L 3578 4134 
L 1259 4134 
L 1259 2753 
L 3481 2753 
L 3481 2222 
L 1259 2222 
L 1259 531 
L 3634 531 
L 3634 0 
L 628 0 
L 628 4666 
z
" transform="scale(0.015625)"/>
       <path id="DejaVuSans-79" d="M 2059 -325 
Q 1816 -950 1584 -1140 
Q 1353 -1331 966 -1331 
L 506 -1331 
L 506 -850 
L 844 -850 
Q 1081 -850 1212 -737 
Q 1344 -625 1503 -206 
L 1606 56 
L 191 3500 
L 800 3500 
L 1894 763 
L 2988 3500 
L 3597 3500 
L 2059 -325 
z
" transform="scale(0.015625)"/>
       <path id="DejaVuSans-42" d="M 1259 2228 
L 1259 519 
L 2272 519 
Q 2781 519 3026 730 
Q 3272 941 3272 1375 
Q 3272 1813 3026 2020 
Q 2781 2228 2272 2228 
L 1259 2228 
z
M 1259 4147 
L 1259 2741 
L 2194 2741 
Q 2656 2741 2882 2914 
Q 3109 3088 3109 3444 
Q 3109 3797 2882 3972 
Q 2656 4147 2194 4147 
L 1259 4147 
z
M 628 4666 
L 2241 4666 
Q 2963 4666 3353 4366 
Q 3744 4066 3744 3513 
Q 3744 3084 3544 2831 
Q 3344 2578 2956 2516 
Q 3422 2416 3680 2098 
Q 3938 1781 3938 1306 
Q 3938 681 3513 340 
Q 3088 0 2303 0 
L 628 0 
L 628 4666 
z
" transform="scale(0.015625)"/>
       <path id="DejaVuSans-37" d="M 525 4666 
L 3525 4666 
L 3525 4397 
L 1831 0 
L 1172 0 
L 2766 4134 
L 525 4134 
L 525 4666 
z
" transform="scale(0.015625)"/>
      </defs>
      <use xlink:href="#DejaVuSans-45"/>
      <use xlink:href="#DejaVuSans-73" x="63.183594"/>
      <use xlink:href="#DejaVuSans-74" x="115.283203"/>
      <use xlink:href="#DejaVuSans-69" x="154.492188"/>
      <use xlink:href="#DejaVuSans-6d" x="182.275391"/>
      <use xlink:href="#DejaVuSans-61" x="279.6875"/>
      <use xlink:href="#DejaVuSans-74" x="340.966797"/>
      <use xlink:href="#DejaVuSans-65" x="380.175781"/>
      <use xlink:href="#DejaVuSans-64" x="441.699219"/>
      <use xlink:href="#DejaVuSans-20" x="505.175781"/>
      <use xlink:href="#DejaVuSans-64" x="536.962891"/>
      <use xlink:href="#DejaVuSans-61" x="600.439453"/>
      <use xlink:href="#DejaVuSans-69" x="661.71875"/>
      <use xlink:href="#DejaVuSans-6c" x="689.501953"/>
      <use xlink:href="#DejaVuSans-79" x="717.285156"/>
      <use xlink:href="#DejaVuSans-20" x="776.464844"/>
      <use xlink:href="#DejaVuSans-70" x="808.251953"/>
      <use xlink:href="#DejaVuSans-72" x="871.728516"/>
      <use xlink:href="#DejaVuSans-6f" x="910.591797"/>
      <use xlink:href="#DejaVuSans-70" x="971.773438"/>
      <use xlink:href="#DejaVuSans-6f" x="1035.25"/>
      <use xlink:href="#DejaVuSans-72" x="1096.431641"/>
      <use xlink:href="#DejaVuSans-74" x="1137.544922"/>
      <use xlink:href="#DejaVuSans-69" x="1176.753906"/>
      <use xlink:href="#DejaVuSans-6f" x="1204.537109"/>
      <use xlink:href="#DejaVuSans-6e" x="1265.71875"/>
      <use xlink:href="#DejaVuSans-20" x="1329.097656"/>
      <use xlink:href="#DejaVuSans-6f" x="1360.884766"/>
      <use xlink:href="#DejaVuSans-66" x="1422.066406"/>
      <use xlink:href="#DejaVuSans-20" x="1457.271484"/>
      <use xlink:href="#DejaVuSans-42" x="1489.058594"/>
      <use xlink:href="#DejaVuSans-2e" x="1557.662109"/>
      <use xlink:href="#DejaVuSans-31" x="1589.449219"/>
      <use xlink:href="#DejaVuSans-2e" x="1653.072266"/>
      <use xlink:href="#DejaVuSans-31" x="1684.859375"/>
      <use xlink:href="#DejaVuSans-2e" x="1748.482422"/>
      <use xlink:href="#DejaVuSans-37" x="1780.269531"/>
     </g>
    </g>
   </g>
   <g id="PathCollection_2">
    <g clip-path="url(#pf44816304a)">
     <use xlink:href="#mab287af8e8" x="80.917983" y="166.04" style="fill: #67916e; stroke: #67916e"/>
     <use xlink:href="#mab287af8e8" x="85.291092" y="166.04" style="fill: #67916e; stroke: #67916e"/>
     <use xlink:href="#mab287af8e8" x="89.664202" y="166.04" style="fill: #67916e; stroke: #67916e"/>
     <use xlink:href="#mab287af8e8" x="94.037311" y="115.61" style="fill: #67916e; stroke: #67916e"/>
     <use xlink:href="#mab287af8e8" x="98.41042" y="166.04" style="fill: #67916e; stroke: #67916e"/>
     <use xlink:href="#mab287af8e8" x="102.783529" y="158.568889" style="fill: #67916e; stroke: #67916e"/>
     <use xlink:href="#mab287af8e8" x="107.156639" y="166.04" style="fill: #67916e; stroke: #67916e"/>
     <use xlink:href="#mab287af8e8" x="111.529748" y="166.04" style="fill: #67916e; stroke: #67916e"/>
     <use xlink:href="#mab287af8e8" x="115.902857" y="154.346087" style="fill: #67916e; stroke: #67916e"/>
     <use xlink:href="#mab287af8e8" x="120.275966" y="160.193043" style="fill: #67916e; stroke: #67916e"/>
     <use xlink:href="#mab287af8e8" x="124.649076" y="166.04" style="fill: #67916e; stroke: #67916e"/>
     <use xlink:href="#mab287af8e8" x="142.141513" y="31.56" style="fill: #67916e; stroke: #67916e"/>
     <use xlink:href="#mab287af8e8" x="150.887731" y="121.213333" style="fill: #67916e; stroke: #67916e"/>
     <use xlink:href="#mab287af8e8" x="155.26084" y="157.363871" style="fill: #67916e; stroke: #67916e"/>
     <use xlink:href="#mab287af8e8" x="159.63395" y="142.506" style="fill: #67916e; stroke: #67916e"/>
     <use xlink:href="#mab287af8e8" x="164.007059" y="144.232432" style="fill: #67916e; stroke: #67916e"/>
     <use xlink:href="#mab287af8e8" x="168.380168" y="123.0064" style="fill: #67916e; stroke: #67916e"/>
     <use xlink:href="#mab287af8e8" x="172.753277" y="151.733617" style="fill: #67916e; stroke: #67916e"/>
     <use xlink:href="#mab287af8e8" x="177.126387" y="155.492549" style="fill: #67916e; stroke: #67916e"/>
     <use xlink:href="#mab287af8e8" x="181.499496" y="146.198689" style="fill: #67916e; stroke: #67916e"/>
     <use xlink:href="#mab287af8e8" x="185.872605" y="137.427234" style="fill: #67916e; stroke: #67916e"/>
     <use xlink:href="#mab287af8e8" x="190.245714" y="128.2175" style="fill: #67916e; stroke: #67916e"/>
     <use xlink:href="#mab287af8e8" x="194.618824" y="132.880548" style="fill: #67916e; stroke: #67916e"/>
     <use xlink:href="#mab287af8e8" x="198.991933" y="136.155556" style="fill: #67916e; stroke: #67916e"/>
     <use xlink:href="#mab287af8e8" x="203.365042" y="147.165614" style="fill: #67916e; stroke: #67916e"/>
     <use xlink:href="#mab287af8e8" x="207.738151" y="152.92" style="fill: #67916e; stroke: #67916e"/>
     <use xlink:href="#mab287af8e8" x="212.111261" y="103.282667" style="fill: #67916e; stroke: #67916e"/>
     <use xlink:href="#mab287af8e8" x="216.48437" y="135.301714" style="fill: #67916e; stroke: #67916e"/>
     <use xlink:href="#mab287af8e8" x="220.857479" y="124.201778" style="fill: #67916e; stroke: #67916e"/>
     <use xlink:href="#mab287af8e8" x="225.230588" y="133.24" style="fill: #67916e; stroke: #67916e"/>
     <use xlink:href="#mab287af8e8" x="229.603697" y="108.987879" style="fill: #67916e; stroke: #67916e"/>
     <use xlink:href="#mab287af8e8" x="233.976807" y="106.558462" style="fill: #67916e; stroke: #67916e"/>
     <use xlink:href="#mab287af8e8" x="238.349916" y="109.259556" style="fill: #67916e; stroke: #67916e"/>
     <use xlink:href="#mab287af8e8" x="242.723025" y="111.336271" style="fill: #67916e; stroke: #67916e"/>
     <use xlink:href="#mab287af8e8" x="247.096134" y="106.271111" style="fill: #67916e; stroke: #67916e"/>
     <use xlink:href="#mab287af8e8" x="251.469244" y="100.524103" style="fill: #67916e; stroke: #67916e"/>
     <use xlink:href="#mab287af8e8" x="255.842353" y="106.8688" style="fill: #67916e; stroke: #67916e"/>
     <use xlink:href="#mab287af8e8" x="260.215462" y="82.790476" style="fill: #67916e; stroke: #67916e"/>
     <use xlink:href="#mab287af8e8" x="264.588571" y="66.641739" style="fill: #67916e; stroke: #67916e"/>
     <use xlink:href="#mab287af8e8" x="268.961681" y="88.340444" style="fill: #67916e; stroke: #67916e"/>
     <use xlink:href="#mab287af8e8" x="273.33479" y="81.660392" style="fill: #67916e; stroke: #67916e"/>
     <use xlink:href="#mab287af8e8" x="277.707899" y="76.386667" style="fill: #67916e; stroke: #67916e"/>
     <use xlink:href="#mab287af8e8" x="282.081008" y="118.011429" style="fill: #67916e; stroke: #67916e"/>
     <use xlink:href="#mab287af8e8" x="286.454118" y="71.904" style="fill: #67916e; stroke: #67916e"/>
     <use xlink:href="#mab287af8e8" x="290.827227" y="65.18" style="fill: #67916e; stroke: #67916e"/>
     <use xlink:href="#mab287af8e8" x="295.200336" y="62.123636" style="fill: #67916e; stroke: #67916e"/>
     <use xlink:href="#mab287af8e8" x="299.573445" y="68.542" style="fill: #67916e; stroke: #67916e"/>
     <use xlink:href="#mab287af8e8" x="303.946555" y="63.8352" style="fill: #67916e; stroke: #67916e"/>
     <use xlink:href="#mab287af8e8" x="308.319664" y="76.386667" style="fill: #67916e; stroke: #67916e"/>
     <use xlink:href="#mab287af8e8" x="312.692773" y="98.8" style="fill: #67916e; stroke: #67916e"/>
     <use xlink:href="#mab287af8e8" x="317.065882" y="59.576667" style="fill: #67916e; stroke: #67916e"/>
     <use xlink:href="#mab287af8e8" x="321.438992" y="82.444324" style="fill: #67916e; stroke: #67916e"/>
     <use xlink:href="#mab287af8e8" x="325.812101" y="76.386667" style="fill: #67916e; stroke: #67916e"/>
     <use xlink:href="#mab287af8e8" x="330.18521" y="83.857778" style="fill: #67916e; stroke: #67916e"/>
     <use xlink:href="#mab287af8e8" x="334.558319" y="68.236364" style="fill: #67916e; stroke: #67916e"/>
     <use xlink:href="#mab287af8e8" x="338.931429" y="68.657931" style="fill: #67916e; stroke: #67916e"/>
     <use xlink:href="#mab287af8e8" x="343.304538" y="55.7664" style="fill: #67916e; stroke: #67916e"/>
     <use xlink:href="#mab287af8e8" x="347.677647" y="59.383448" style="fill: #67916e; stroke: #67916e"/>
     <use xlink:href="#mab287af8e8" x="352.050756" y="61.444444" style="fill: #67916e; stroke: #67916e"/>
     <use xlink:href="#mab287af8e8" x="356.423866" y="64.161212" style="fill: #67916e; stroke: #67916e"/>
     <use xlink:href="#mab287af8e8" x="360.796975" y="66.425185" style="fill: #67916e; stroke: #67916e"/>
     <use xlink:href="#mab287af8e8" x="365.170084" y="31.56" style="fill: #67916e; stroke: #67916e"/>
     <use xlink:href="#mab287af8e8" x="369.543193" y="42.766667" style="fill: #67916e; stroke: #67916e"/>
     <use xlink:href="#mab287af8e8" x="373.916303" y="43.086857" style="fill: #67916e; stroke: #67916e"/>
     <use xlink:href="#mab287af8e8" x="378.289412" y="39.965" style="fill: #67916e; stroke: #67916e"/>
     <use xlink:href="#mab287af8e8" x="382.662521" y="45.008" style="fill: #67916e; stroke: #67916e"/>
     <use xlink:href="#mab287af8e8" x="387.03563" y="47.6976" style="fill: #67916e; stroke: #67916e"/>
     <use xlink:href="#mab287af8e8" x="391.408739" y="41.165714" style="fill: #67916e; stroke: #67916e"/>
     <use xlink:href="#mab287af8e8" x="395.781849" y="36.540741" style="fill: #67916e; stroke: #67916e"/>
     <use xlink:href="#mab287af8e8" x="400.154958" y="41.165714" style="fill: #67916e; stroke: #67916e"/>
     <use xlink:href="#mab287af8e8" x="404.528067" y="45.715789" style="fill: #67916e; stroke: #67916e"/>
     <use xlink:href="#mab287af8e8" x="408.901176" y="31.56" style="fill: #67916e; stroke: #67916e"/>
     <use xlink:href="#mab287af8e8" x="413.274286" y="40.236129" style="fill: #67916e; stroke: #67916e"/>
     <use xlink:href="#mab287af8e8" x="417.647395" y="44.1675" style="fill: #67916e; stroke: #67916e"/>
     <use xlink:href="#mab287af8e8" x="422.020504" y="47.076923" style="fill: #67916e; stroke: #67916e"/>
     <use xlink:href="#mab287af8e8" x="426.393613" y="41.904615" style="fill: #67916e; stroke: #67916e"/>
     <use xlink:href="#mab287af8e8" x="430.766723" y="54.947826" style="fill: #67916e; stroke: #67916e"/>
     <use xlink:href="#mab287af8e8" x="435.139832" y="37.672727" style="fill: #67916e; stroke: #67916e"/>
     <use xlink:href="#mab287af8e8" x="439.512941" y="31.56" style="fill: #67916e; stroke: #67916e"/>
     <use xlink:href="#mab287af8e8" x="443.88605" y="48.801026" style="fill: #67916e; stroke: #67916e"/>
     <use xlink:href="#mab287af8e8" x="448.25916" y="43.785455" style="fill: #67916e; stroke: #67916e"/>
     <use xlink:href="#mab287af8e8" x="452.632269" y="38.637895" style="fill: #67916e; stroke: #67916e"/>
     <use xlink:href="#mab287af8e8" x="457.005378" y="47.076923" style="fill: #67916e; stroke: #67916e"/>
     <use xlink:href="#mab287af8e8" x="461.378487" y="45.352821" style="fill: #67916e; stroke: #67916e"/>
     <use xlink:href="#mab287af8e8" x="465.751597" y="45.471724" style="fill: #67916e; stroke: #67916e"/>
     <use xlink:href="#mab287af8e8" x="470.124706" y="39.470588" style="fill: #67916e; stroke: #67916e"/>
     <use xlink:href="#mab287af8e8" x="474.497815" y="50.108966" style="fill: #67916e; stroke: #67916e"/>
     <use xlink:href="#mab287af8e8" x="478.870924" y="38.829189" style="fill: #67916e; stroke: #67916e"/>
     <use xlink:href="#mab287af8e8" x="483.244034" y="31.56" style="fill: #67916e; stroke: #67916e"/>
    </g>
   </g>
  </g>
 </g>
 <defs>
  <clipPath id="pf44816304a">
   <rect x="41.56" y="31.56" width="520.4" height="134.48"/>
  </clipPath>
 </defs>
</svg>
