<?xml version="1.0" encoding="utf-8" standalone="no"?>
<!DOCTYPE svg PUBLIC "-//W3C//DTD SVG 1.1//EN"
  "http://www.w3.org/Graphics/SVG/1.1/DTD/svg11.dtd">
<svg xmlns:xlink="http://www.w3.org/1999/xlink" width="720pt" height="504pt" viewBox="0 0 720 504" xmlns="http://www.w3.org/2000/svg" version="1.1">
 <metadata>
  <rdf:RDF xmlns:dc="http://purl.org/dc/elements/1.1/" xmlns:cc="http://creativecommons.org/ns#" xmlns:rdf="http://www.w3.org/1999/02/22-rdf-syntax-ns#">
   <cc:Work>
    <dc:type rdf:resource="http://purl.org/dc/dcmitype/StillImage"/>
    <dc:date>2024-01-04T17:09:18.662055</dc:date>
    <dc:format>image/svg+xml</dc:format>
    <dc:creator>
     <cc:Agent>
      <dc:title>Matplotlib v3.5.3, https://matplotlib.org/</dc:title>
     </cc:Agent>
    </dc:creator>
   </cc:Work>
  </rdf:RDF>
 </metadata>
 <defs>
  <style type="text/css">*{stroke-linejoin: round; stroke-linecap: butt}</style>
 </defs>
 <g id="figure_1">
  <g id="patch_1">
   <path d="M 0 504 
L 720 504 
L 720 0 
L 0 0 
z
" style="fill: #ffffff"/>
  </g>
  <g id="axes_1">
   <g id="patch_2">
    <path d="M 53.8 454.04 
L 705.96 454.04 
L 705.96 31.56 
L 53.8 31.56 
z
" style="fill: #ffffff"/>
   </g>
   <g id="matplotlib.axis_1">
    <g id="xtick_1">
     <g id="line2d_1">
      <defs>
       <path id="m2a829cb886" d="M 0 0 
L 0 3.5 
" style="stroke: #000000; stroke-width: 0.8"/>
      </defs>
      <g>
       <use xlink:href="#m2a829cb886" x="83.443636" y="454.04" style="stroke: #000000; stroke-width: 0.8"/>
      </g>
     </g>
     <g id="text_1">
      <!-- Jan -->
      <g transform="translate(73.42348 470.917969)scale(0.13 -0.13)">
       <defs>
        <path id="DejaVuSans-4a" d="M 628 4666 
L 1259 4666 
L 1259 325 
Q 1259 -519 939 -900 
Q 619 -1281 -91 -1281 
L -331 -1281 
L -331 -750 
L -134 -750 
Q 284 -750 456 -515 
Q 628 -281 628 325 
L 628 4666 
z
" transform="scale(0.015625)"/>
        <path id="DejaVuSans-61" d="M 2194 1759 
Q 1497 1759 1228 1600 
Q 959 1441 959 1056 
Q 959 750 1161 570 
Q 1363 391 1709 391 
Q 2188 391 2477 730 
Q 2766 1069 2766 1631 
L 2766 1759 
L 2194 1759 
z
M 3341 1997 
L 3341 0 
L 2766 0 
L 2766 531 
Q 2569 213 2275 61 
Q 1981 -91 1556 -91 
Q 1019 -91 701 211 
Q 384 513 384 1019 
Q 384 1609 779 1909 
Q 1175 2209 1959 2209 
L 2766 2209 
L 2766 2266 
Q 2766 2663 2505 2880 
Q 2244 3097 1772 3097 
Q 1472 3097 1187 3025 
Q 903 2953 641 2809 
L 641 3341 
Q 956 3463 1253 3523 
Q 1550 3584 1831 3584 
Q 2591 3584 2966 3190 
Q 3341 2797 3341 1997 
z
" transform="scale(0.015625)"/>
        <path id="DejaVuSans-6e" d="M 3513 2113 
L 3513 0 
L 2938 0 
L 2938 2094 
Q 2938 2591 2744 2837 
Q 2550 3084 2163 3084 
Q 1697 3084 1428 2787 
Q 1159 2491 1159 1978 
L 1159 0 
L 581 0 
L 581 3500 
L 1159 3500 
L 1159 2956 
Q 1366 3272 1645 3428 
Q 1925 3584 2291 3584 
Q 2894 3584 3203 3211 
Q 3513 2838 3513 2113 
z
" transform="scale(0.015625)"/>
       </defs>
       <use xlink:href="#DejaVuSans-4a"/>
       <use xlink:href="#DejaVuSans-61" x="29.492188"/>
       <use xlink:href="#DejaVuSans-6e" x="90.771484"/>
      </g>
     </g>
    </g>
    <g id="xtick_2">
     <g id="line2d_2">
      <g>
       <use xlink:href="#m2a829cb886" x="169.904242" y="454.04" style="stroke: #000000; stroke-width: 0.8"/>
      </g>
     </g>
     <g id="text_2">
      <!-- 15 -->
      <g transform="translate(161.632992 470.917969)scale(0.13 -0.13)">
       <defs>
        <path id="DejaVuSans-31" d="M 794 531 
L 1825 531 
L 1825 4091 
L 703 3866 
L 703 4441 
L 1819 4666 
L 2450 4666 
L 2450 531 
L 3481 531 
L 3481 0 
L 794 0 
L 794 531 
z
" transform="scale(0.015625)"/>
        <path id="DejaVuSans-35" d="M 691 4666 
L 3169 4666 
L 3169 4134 
L 1269 4134 
L 1269 2991 
Q 1406 3038 1543 3061 
Q 1681 3084 1819 3084 
Q 2600 3084 3056 2656 
Q 3513 2228 3513 1497 
Q 3513 744 3044 326 
Q 2575 -91 1722 -91 
Q 1428 -91 1123 -41 
Q 819 9 494 109 
L 494 744 
Q 775 591 1075 516 
Q 1375 441 1709 441 
Q 2250 441 2565 725 
Q 2881 1009 2881 1497 
Q 2881 1984 2565 2268 
Q 2250 2553 1709 2553 
Q 1456 2553 1204 2497 
Q 953 2441 691 2322 
L 691 4666 
z
" transform="scale(0.015625)"/>
       </defs>
       <use xlink:href="#DejaVuSans-31"/>
       <use xlink:href="#DejaVuSans-35" x="63.623047"/>
      </g>
     </g>
    </g>
    <g id="xtick_3">
     <g id="line2d_3">
      <g>
       <use xlink:href="#m2a829cb886" x="274.892121" y="454.04" style="stroke: #000000; stroke-width: 0.8"/>
      </g>
     </g>
     <g id="text_3">
      <!-- Feb -->
      <g transform="translate(263.38509 470.917969)scale(0.13 -0.13)">
       <defs>
        <path id="DejaVuSans-46" d="M 628 4666 
L 3309 4666 
L 3309 4134 
L 1259 4134 
L 1259 2759 
L 3109 2759 
L 3109 2228 
L 1259 2228 
L 1259 0 
L 628 0 
L 628 4666 
z
" transform="scale(0.015625)"/>
        <path id="DejaVuSans-65" d="M 3597 1894 
L 3597 1613 
L 953 1613 
Q 991 1019 1311 708 
Q 1631 397 2203 397 
Q 2534 397 2845 478 
Q 3156 559 3463 722 
L 3463 178 
Q 3153 47 2828 -22 
Q 2503 -91 2169 -91 
Q 1331 -91 842 396 
Q 353 884 353 1716 
Q 353 2575 817 3079 
Q 1281 3584 2069 3584 
Q 2775 3584 3186 3129 
Q 3597 2675 3597 1894 
z
M 3022 2063 
Q 3016 2534 2758 2815 
Q 2500 3097 2075 3097 
Q 1594 3097 1305 2825 
Q 1016 2553 972 2059 
L 3022 2063 
z
" transform="scale(0.015625)"/>
        <path id="DejaVuSans-62" d="M 3116 1747 
Q 3116 2381 2855 2742 
Q 2594 3103 2138 3103 
Q 1681 3103 1420 2742 
Q 1159 2381 1159 1747 
Q 1159 1113 1420 752 
Q 1681 391 2138 391 
Q 2594 391 2855 752 
Q 3116 1113 3116 1747 
z
M 1159 2969 
Q 1341 3281 1617 3432 
Q 1894 3584 2278 3584 
Q 2916 3584 3314 3078 
Q 3713 2572 3713 1747 
Q 3713 922 3314 415 
Q 2916 -91 2278 -91 
Q 1894 -91 1617 61 
Q 1341 213 1159 525 
L 1159 0 
L 581 0 
L 581 4863 
L 1159 4863 
L 1159 2969 
z
" transform="scale(0.015625)"/>
       </defs>
       <use xlink:href="#DejaVuSans-46"/>
       <use xlink:href="#DejaVuSans-65" x="52.019531"/>
       <use xlink:href="#DejaVuSans-62" x="113.542969"/>
      </g>
     </g>
    </g>
    <g id="xtick_4">
     <g id="line2d_4">
      <g>
       <use xlink:href="#m2a829cb886" x="361.352727" y="454.04" style="stroke: #000000; stroke-width: 0.8"/>
      </g>
     </g>
     <g id="text_4">
      <!-- 15 -->
      <g transform="translate(353.081477 470.917969)scale(0.13 -0.13)">
       <use xlink:href="#DejaVuSans-31"/>
       <use xlink:href="#DejaVuSans-35" x="63.623047"/>
      </g>
     </g>
    </g>
    <g id="xtick_5">
     <g id="line2d_5">
      <g>
       <use xlink:href="#m2a829cb886" x="447.813333" y="454.04" style="stroke: #000000; stroke-width: 0.8"/>
      </g>
     </g>
     <g id="text_5">
      <!-- Mar -->
      <g transform="translate(435.549661 470.917969)scale(0.13 -0.13)">
       <defs>
        <path id="DejaVuSans-4d" d="M 628 4666 
L 1569 4666 
L 2759 1491 
L 3956 4666 
L 4897 4666 
L 4897 0 
L 4281 0 
L 4281 4097 
L 3078 897 
L 2444 897 
L 1241 4097 
L 1241 0 
L 628 0 
L 628 4666 
z
" transform="scale(0.015625)"/>
        <path id="DejaVuSans-72" d="M 2631 2963 
Q 2534 3019 2420 3045 
Q 2306 3072 2169 3072 
Q 1681 3072 1420 2755 
Q 1159 2438 1159 1844 
L 1159 0 
L 581 0 
L 581 3500 
L 1159 3500 
L 1159 2956 
Q 1341 3275 1631 3429 
Q 1922 3584 2338 3584 
Q 2397 3584 2469 3576 
Q 2541 3569 2628 3553 
L 2631 2963 
z
" transform="scale(0.015625)"/>
       </defs>
       <use xlink:href="#DejaVuSans-4d"/>
       <use xlink:href="#DejaVuSans-61" x="86.279297"/>
       <use xlink:href="#DejaVuSans-72" x="147.558594"/>
      </g>
     </g>
    </g>
    <g id="xtick_6">
     <g id="line2d_6">
      <g>
       <use xlink:href="#m2a829cb886" x="534.273939" y="454.04" style="stroke: #000000; stroke-width: 0.8"/>
      </g>
     </g>
     <g id="text_6">
      <!-- 15 -->
      <g transform="translate(526.002689 470.917969)scale(0.13 -0.13)">
       <use xlink:href="#DejaVuSans-31"/>
       <use xlink:href="#DejaVuSans-35" x="63.623047"/>
      </g>
     </g>
    </g>
    <g id="xtick_7">
     <g id="line2d_7">
      <g>
       <use xlink:href="#m2a829cb886" x="639.261818" y="454.04" style="stroke: #000000; stroke-width: 0.8"/>
      </g>
     </g>
     <g id="text_7">
      <!-- Apr -->
      <g transform="translate(628.016818 470.917969)scale(0.13 -0.13)">
       <defs>
        <path id="DejaVuSans-41" d="M 2188 4044 
L 1331 1722 
L 3047 1722 
L 2188 4044 
z
M 1831 4666 
L 2547 4666 
L 4325 0 
L 3669 0 
L 3244 1197 
L 1141 1197 
L 716 0 
L 50 0 
L 1831 4666 
z
" transform="scale(0.015625)"/>
        <path id="DejaVuSans-70" d="M 1159 525 
L 1159 -1331 
L 581 -1331 
L 581 3500 
L 1159 3500 
L 1159 2969 
Q 1341 3281 1617 3432 
Q 1894 3584 2278 3584 
Q 2916 3584 3314 3078 
Q 3713 2572 3713 1747 
Q 3713 922 3314 415 
Q 2916 -91 2278 -91 
Q 1894 -91 1617 61 
Q 1341 213 1159 525 
z
M 3116 1747 
Q 3116 2381 2855 2742 
Q 2594 3103 2138 3103 
Q 1681 3103 1420 2742 
Q 1159 2381 1159 1747 
Q 1159 1113 1420 752 
Q 1681 391 2138 391 
Q 2594 391 2855 752 
Q 3116 1113 3116 1747 
z
" transform="scale(0.015625)"/>
       </defs>
       <use xlink:href="#DejaVuSans-41"/>
       <use xlink:href="#DejaVuSans-70" x="68.408203"/>
       <use xlink:href="#DejaVuSans-72" x="131.884766"/>
      </g>
     </g>
    </g>
    <g id="text_8">
     <!-- 2021-Apr -->
     <g transform="translate(645.987344 486.499531)scale(0.13 -0.13)">
      <defs>
       <path id="DejaVuSans-32" d="M 1228 531 
L 3431 531 
L 3431 0 
L 469 0 
L 469 531 
Q 828 903 1448 1529 
Q 2069 2156 2228 2338 
Q 2531 2678 2651 2914 
Q 2772 3150 2772 3378 
Q 2772 3750 2511 3984 
Q 2250 4219 1831 4219 
Q 1534 4219 1204 4116 
Q 875 4013 500 3803 
L 500 4441 
Q 881 4594 1212 4672 
Q 1544 4750 1819 4750 
Q 2544 4750 2975 4387 
Q 3406 4025 3406 3419 
Q 3406 3131 3298 2873 
Q 3191 2616 2906 2266 
Q 2828 2175 2409 1742 
Q 1991 1309 1228 531 
z
" transform="scale(0.015625)"/>
       <path id="DejaVuSans-30" d="M 2034 4250 
Q 1547 4250 1301 3770 
Q 1056 3291 1056 2328 
Q 1056 1369 1301 889 
Q 1547 409 2034 409 
Q 2525 409 2770 889 
Q 3016 1369 3016 2328 
Q 3016 3291 2770 3770 
Q 2525 4250 2034 4250 
z
M 2034 4750 
Q 2819 4750 3233 4129 
Q 3647 3509 3647 2328 
Q 3647 1150 3233 529 
Q 2819 -91 2034 -91 
Q 1250 -91 836 529 
Q 422 1150 422 2328 
Q 422 3509 836 4129 
Q 1250 4750 2034 4750 
z
" transform="scale(0.015625)"/>
       <path id="DejaVuSans-2d" d="M 313 2009 
L 1997 2009 
L 1997 1497 
L 313 1497 
L 313 2009 
z
" transform="scale(0.015625)"/>
      </defs>
      <use xlink:href="#DejaVuSans-32"/>
      <use xlink:href="#DejaVuSans-30" x="63.623047"/>
      <use xlink:href="#DejaVuSans-32" x="127.246094"/>
      <use xlink:href="#DejaVuSans-31" x="190.869141"/>
      <use xlink:href="#DejaVuSans-2d" x="254.492188"/>
      <use xlink:href="#DejaVuSans-41" x="288.326172"/>
      <use xlink:href="#DejaVuSans-70" x="356.734375"/>
      <use xlink:href="#DejaVuSans-72" x="420.210938"/>
     </g>
    </g>
   </g>
   <g id="matplotlib.axis_2">
    <g id="ytick_1">
     <g id="line2d_8">
      <defs>
       <path id="mf434fff735" d="M 0 0 
L -3.5 0 
" style="stroke: #000000; stroke-width: 0.8"/>
      </defs>
      <g>
       <use xlink:href="#mf434fff735" x="53.8" y="454.04" style="stroke: #000000; stroke-width: 0.8"/>
      </g>
     </g>
     <g id="text_9">
      <!-- 0 -->
      <g transform="translate(38.52875 458.978984)scale(0.13 -0.13)">
       <use xlink:href="#DejaVuSans-30"/>
      </g>
     </g>
    </g>
    <g id="ytick_2">
     <g id="line2d_9">
      <g>
       <use xlink:href="#mf434fff735" x="53.8" y="401.23" style="stroke: #000000; stroke-width: 0.8"/>
      </g>
     </g>
     <g id="text_10">
      <!-- 500 -->
      <g transform="translate(21.98625 406.168984)scale(0.13 -0.13)">
       <use xlink:href="#DejaVuSans-35"/>
       <use xlink:href="#DejaVuSans-30" x="63.623047"/>
       <use xlink:href="#DejaVuSans-30" x="127.246094"/>
      </g>
     </g>
    </g>
    <g id="ytick_3">
     <g id="line2d_10">
      <g>
       <use xlink:href="#mf434fff735" x="53.8" y="348.42" style="stroke: #000000; stroke-width: 0.8"/>
      </g>
     </g>
     <g id="text_11">
      <!-- 1000 -->
      <g transform="translate(13.715 353.358984)scale(0.13 -0.13)">
       <use xlink:href="#DejaVuSans-31"/>
       <use xlink:href="#DejaVuSans-30" x="63.623047"/>
       <use xlink:href="#DejaVuSans-30" x="127.246094"/>
       <use xlink:href="#DejaVuSans-30" x="190.869141"/>
      </g>
     </g>
    </g>
    <g id="ytick_4">
     <g id="line2d_11">
      <g>
       <use xlink:href="#mf434fff735" x="53.8" y="295.61" style="stroke: #000000; stroke-width: 0.8"/>
      </g>
     </g>
     <g id="text_12">
      <!-- 1500 -->
      <g transform="translate(13.715 300.548984)scale(0.13 -0.13)">
       <use xlink:href="#DejaVuSans-31"/>
       <use xlink:href="#DejaVuSans-35" x="63.623047"/>
       <use xlink:href="#DejaVuSans-30" x="127.246094"/>
       <use xlink:href="#DejaVuSans-30" x="190.869141"/>
      </g>
     </g>
    </g>
    <g id="ytick_5">
     <g id="line2d_12">
      <g>
       <use xlink:href="#mf434fff735" x="53.8" y="242.8" style="stroke: #000000; stroke-width: 0.8"/>
      </g>
     </g>
     <g id="text_13">
      <!-- 2000 -->
      <g transform="translate(13.715 247.738984)scale(0.13 -0.13)">
       <use xlink:href="#DejaVuSans-32"/>
       <use xlink:href="#DejaVuSans-30" x="63.623047"/>
       <use xlink:href="#DejaVuSans-30" x="127.246094"/>
       <use xlink:href="#DejaVuSans-30" x="190.869141"/>
      </g>
     </g>
    </g>
    <g id="ytick_6">
     <g id="line2d_13">
      <g>
       <use xlink:href="#mf434fff735" x="53.8" y="189.99" style="stroke: #000000; stroke-width: 0.8"/>
      </g>
     </g>
     <g id="text_14">
      <!-- 2500 -->
      <g transform="translate(13.715 194.928984)scale(0.13 -0.13)">
       <use xlink:href="#DejaVuSans-32"/>
       <use xlink:href="#DejaVuSans-35" x="63.623047"/>
       <use xlink:href="#DejaVuSans-30" x="127.246094"/>
       <use xlink:href="#DejaVuSans-30" x="190.869141"/>
      </g>
     </g>
    </g>
    <g id="ytick_7">
     <g id="line2d_14">
      <g>
       <use xlink:href="#mf434fff735" x="53.8" y="137.18" style="stroke: #000000; stroke-width: 0.8"/>
      </g>
     </g>
     <g id="text_15">
      <!-- 3000 -->
      <g transform="translate(13.715 142.118984)scale(0.13 -0.13)">
       <defs>
        <path id="DejaVuSans-33" d="M 2597 2516 
Q 3050 2419 3304 2112 
Q 3559 1806 3559 1356 
Q 3559 666 3084 287 
Q 2609 -91 1734 -91 
Q 1441 -91 1130 -33 
Q 819 25 488 141 
L 488 750 
Q 750 597 1062 519 
Q 1375 441 1716 441 
Q 2309 441 2620 675 
Q 2931 909 2931 1356 
Q 2931 1769 2642 2001 
Q 2353 2234 1838 2234 
L 1294 2234 
L 1294 2753 
L 1863 2753 
Q 2328 2753 2575 2939 
Q 2822 3125 2822 3475 
Q 2822 3834 2567 4026 
Q 2313 4219 1838 4219 
Q 1578 4219 1281 4162 
Q 984 4106 628 3988 
L 628 4550 
Q 988 4650 1302 4700 
Q 1616 4750 1894 4750 
Q 2613 4750 3031 4423 
Q 3450 4097 3450 3541 
Q 3450 3153 3228 2886 
Q 3006 2619 2597 2516 
z
" transform="scale(0.015625)"/>
       </defs>
       <use xlink:href="#DejaVuSans-33"/>
       <use xlink:href="#DejaVuSans-30" x="63.623047"/>
       <use xlink:href="#DejaVuSans-30" x="127.246094"/>
       <use xlink:href="#DejaVuSans-30" x="190.869141"/>
      </g>
     </g>
    </g>
    <g id="ytick_8">
     <g id="line2d_15">
      <g>
       <use xlink:href="#mf434fff735" x="53.8" y="84.37" style="stroke: #000000; stroke-width: 0.8"/>
      </g>
     </g>
     <g id="text_16">
      <!-- 3500 -->
      <g transform="translate(13.715 89.308984)scale(0.13 -0.13)">
       <use xlink:href="#DejaVuSans-33"/>
       <use xlink:href="#DejaVuSans-35" x="63.623047"/>
       <use xlink:href="#DejaVuSans-30" x="127.246094"/>
       <use xlink:href="#DejaVuSans-30" x="190.869141"/>
      </g>
     </g>
    </g>
    <g id="ytick_9">
     <g id="line2d_16">
      <g>
       <use xlink:href="#mf434fff735" x="53.8" y="31.56" style="stroke: #000000; stroke-width: 0.8"/>
      </g>
     </g>
     <g id="text_17">
      <!-- 4000 -->
      <g transform="translate(13.715 36.498984)scale(0.13 -0.13)">
       <defs>
        <path id="DejaVuSans-34" d="M 2419 4116 
L 825 1625 
L 2419 1625 
L 2419 4116 
z
M 2253 4666 
L 3047 4666 
L 3047 1625 
L 3713 1625 
L 3713 1100 
L 3047 1100 
L 3047 0 
L 2419 0 
L 2419 1100 
L 313 1100 
L 313 1709 
L 2253 4666 
z
" transform="scale(0.015625)"/>
       </defs>
       <use xlink:href="#DejaVuSans-34"/>
       <use xlink:href="#DejaVuSans-30" x="63.623047"/>
       <use xlink:href="#DejaVuSans-30" x="127.246094"/>
       <use xlink:href="#DejaVuSans-30" x="190.869141"/>
      </g>
     </g>
    </g>
   </g>
   <g id="line2d_17">
    <path d="M 83.443636 97.738474 
L 89.619394 102.204691 
L 95.795152 115.21104 
L 101.970909 113.385323 
L 108.146667 92.71398 
L 114.322424 108.34574 
L 120.498182 122.272491 
L 126.673939 149.703514 
L 132.849697 173.19642 
L 139.025455 186.579983 
L 145.201212 200.717974 
L 151.37697 214.146803 
L 157.552727 219.35236 
L 163.728485 225.402877 
L 169.904242 233.143314 
L 176.08 237.322849 
L 182.255758 240.068969 
L 188.431515 242.830177 
L 194.607273 244.670983 
L 200.78303 248.277151 
L 206.958788 250.691323 
L 213.134545 257.5868 
L 219.310303 265.010377 
L 225.486061 271.181603 
L 231.661818 275.346049 
L 237.837576 279.45014 
L 244.013333 280.642137 
L 250.189091 280.551606 
L 256.364848 285.485569 
L 262.540606 288.32222 
L 268.716364 290.449709 
L 274.892121 295.519469 
L 281.067879 299.427409 
L 287.243636 301.4191 
L 293.419394 302.399857 
L 299.595152 308.661614 
L 305.770909 313.233451 
L 311.946667 320.355257 
L 318.122424 324.44426 
L 324.298182 330.102474 
L 330.473939 332.652443 
L 336.649697 335.519271 
L 342.825455 342.173331 
L 349.001212 345.311754 
L 355.17697 345.945474 
L 361.352727 348.465266 
L 367.528485 349.008454 
L 373.704242 349.400757 
L 379.88 348.767037 
L 386.055758 347.212914 
L 392.231515 345.402286 
L 398.407273 347.499597 
L 404.58303 345.749323 
L 410.758788 345.945474 
L 416.934545 345.477729 
L 423.110303 345.14578 
L 429.286061 344.994894 
L 435.461818 345.447551 
L 441.637576 342.973026 
L 447.813333 343.863251 
L 453.989091 340.92098 
L 460.164848 340.28726 
L 466.340606 339.75916 
L 472.516364 335.489094 
L 478.692121 333.1051 
L 484.867879 330.902169 
L 491.043636 326.722634 
L 497.219394 325.756966 
L 503.395152 323.403149 
L 509.570909 321.562343 
L 515.746667 318.273034 
L 521.922424 314.30474 
L 528.098182 307.665769 
L 534.273939 303.048666 
L 540.449697 299.985686 
L 546.625455 297.149034 
L 552.801212 295.896683 
L 558.97697 290.736391 
L 565.152727 285.561011 
L 571.328485 284.006889 
L 577.504242 276.553134 
L 583.68 269.718011 
L 589.855758 268.224243 
L 596.031515 265.070731 
L 602.207273 261.042083 
L 608.38303 259.533226 
L 614.558788 256.485334 
L 620.734545 258.839151 
L 626.910303 270.89492 
L 633.086061 269.265354 
L 639.261818 268.918317 
L 645.437576 287.673411 
L 651.613333 278.740977 
L 657.789091 274.968834 
L 663.964848 267.469814 
L 670.140606 249.24282 
L 676.316364 243.976909 
" clip-path="url(#p6195cba8f2)" style="fill: none; stroke: #67916e; stroke-width: 4; stroke-linecap: square"/>
   </g>
   <g id="line2d_18">
    <path d="M 83.443636 448.940063 
L 89.619394 446.601334 
L 95.795152 446.601334 
L 101.970909 445.786551 
L 108.146667 443.991011 
L 114.322424 441.969143 
L 120.498182 440.882766 
L 126.673939 439.072137 
L 132.849697 441.229803 
L 139.025455 440.94312 
L 145.201212 440.746969 
L 151.37697 439.67568 
L 157.552727 441.290157 
L 163.728485 441.531574 
L 169.904242 443.493089 
L 176.08 442.10494 
L 182.255758 440.384843 
L 188.431515 439.46444 
L 194.607273 440.3094 
L 200.78303 438.393151 
L 206.958788 438.061203 
L 213.134545 434.756806 
L 219.310303 433.323391 
L 225.486061 432.086129 
L 231.661818 428.781731 
L 237.837576 426.020523 
L 244.013333 425.929991 
L 250.189091 425.643309 
L 256.364848 421.584483 
L 262.540606 419.60788 
L 268.716364 415.896091 
L 274.892121 418.189554 
L 281.067879 415.292549 
L 287.243636 415.624497 
L 293.419394 413.3763 
L 299.595152 414.764449 
L 305.770909 414.341969 
L 311.946667 412.787846 
L 318.122424 408.366894 
L 324.298182 408.487603 
L 330.473939 406.239406 
L 336.649697 407.98968 
L 342.825455 407.899149 
L 349.001212 407.205074 
L 355.17697 408.125477 
L 361.352727 411.15828 
L 367.528485 410.569826 
L 373.704242 409.000614 
L 379.88 404.474043 
L 386.055758 397.472946 
L 392.231515 392.901109 
L 398.407273 390.019191 
L 404.58303 385.311557 
L 410.758788 385.522797 
L 416.934545 386.096163 
L 423.110303 384.54204 
L 429.286061 384.149737 
L 435.461818 381.509237 
L 441.637576 377.118463 
L 447.813333 374.055483 
L 453.989091 367.175094 
L 460.164848 364.247911 
L 466.340606 363.719811 
L 472.516364 356.65836 
L 478.692121 352.720243 
L 484.867879 352.282674 
L 491.043636 348.902834 
L 497.219394 347.062029 
L 503.395152 343.03338 
L 509.570909 342.595811 
L 515.746667 338.06924 
L 521.922424 333.73882 
L 528.098182 324.353729 
L 534.273939 317.563871 
L 540.449697 313.067477 
L 546.625455 310.07994 
L 552.801212 308.299489 
L 558.97697 302.596009 
L 565.152727 297.254654 
L 571.328485 296.439871 
L 577.504242 288.458017 
L 583.68 281.079706 
L 589.855758 278.665534 
" clip-path="url(#p6195cba8f2)" style="fill: none; stroke: #0d4a70; stroke-width: 4; stroke-linecap: square"/>
   </g>
   <g id="line2d_19">
    <path d="M 83.443636 450.841223 
L 89.619394 450.8714 
L 95.795152 450.614894 
L 101.970909 450.373477 
L 108.146667 449.664314 
L 114.322424 449.513429 
L 120.498182 450.02644 
L 126.673939 449.558694 
L 132.849697 448.44214 
L 139.025455 447.189789 
L 145.201212 446.1185 
L 151.37697 444.986857 
L 157.552727 444.896326 
L 163.728485 442.980077 
L 169.904242 441.063829 
L 176.08 440.249046 
L 182.255758 437.865051 
L 188.431515 435.707386 
L 194.607273 433.625163 
L 200.78303 432.433166 
L 206.958788 432.17666 
L 213.134545 430.848866 
L 219.310303 429.128769 
L 225.486061 428.721377 
L 231.661818 424.949234 
L 237.837576 423.123517 
L 244.013333 423.530909 
L 250.189091 423.968477 
L 256.364848 421.93152 
L 262.540606 421.901343 
L 268.716364 421.433597 
L 274.892121 422.369089 
L 281.067879 421.388331 
L 287.243636 418.44606 
L 293.419394 415.111486 
L 299.595152 414.372146 
L 305.770909 413.949666 
L 311.946667 414.628651 
L 318.122424 416.665609 
L 324.298182 418.55168 
L 330.473939 419.668234 
L 336.649697 421.886254 
L 342.825455 422.157849 
L 349.001212 420.362309 
L 355.17697 416.559989 
L 361.352727 414.945511 
L 367.528485 409.724866 
L 373.704242 405.997989 
L 379.88 403.900677 
L 386.055758 400.294509 
L 392.231515 397.412591 
L 398.407273 396.220594 
L 404.58303 394.862623 
L 410.758788 394.772091 
L 416.934545 395.390723 
L 423.110303 392.840754 
L 429.286061 388.359449 
L 435.461818 386.458289 
L 441.637576 383.606549 
L 447.813333 382.00716 
L 453.989091 380.800074 
L 460.164848 379.215774 
L 466.340606 379.034711 
L 472.516364 378.94418 
L 478.692121 373.512294 
L 484.867879 370.962326 
L 491.043636 367.144917 
L 497.219394 365.651149 
L 503.395152 363.357686 
L 509.570909 362.693789 
L 515.746667 353.640646 
L 521.922424 347.46942 
L 528.098182 337.390254 
L 534.273939 327.869366 
L 540.449697 318.484274 
L 546.625455 311.966011 
L 552.801212 309.219891 
L 558.97697 302.852514 
L 565.152727 297.149034 
L 571.328485 294.191674 
L 577.504242 288.42784 
L 583.68 282.784714 
L 589.855758 283.35808 
L 596.031515 280.732669 
L 602.207273 277.745131 
L 608.38303 277.292474 
L 614.558788 274.893391 
L 620.734545 272.916789 
L 626.910303 283.765471 
L 633.086061 280.777934 
L 639.261818 279.118191 
" clip-path="url(#p6195cba8f2)" style="fill: none; stroke: #1883c6; stroke-width: 4; stroke-linecap: square"/>
   </g>
   <g id="patch_3">
    <path d="M 53.8 454.04 
L 53.8 31.56 
" style="fill: none; stroke: #000000; stroke-width: 0.8; stroke-linejoin: miter; stroke-linecap: square"/>
   </g>
   <g id="patch_4">
    <path d="M 705.96 454.04 
L 705.96 31.56 
" style="fill: none; stroke: #000000; stroke-width: 0.8; stroke-linejoin: miter; stroke-linecap: square"/>
   </g>
   <g id="patch_5">
    <path d="M 53.8 454.04 
L 705.96 454.04 
" style="fill: none; stroke: #000000; stroke-width: 0.8; stroke-linejoin: miter; stroke-linecap: square"/>
   </g>
   <g id="patch_6">
    <path d="M 53.8 31.56 
L 705.96 31.56 
" style="fill: none; stroke: #000000; stroke-width: 0.8; stroke-linejoin: miter; stroke-linecap: square"/>
   </g>
   <g id="text_18">
    <!-- Switzerland -->
    <g transform="translate(334.382844 25.56)scale(0.156 -0.156)">
     <defs>
      <path id="DejaVuSans-53" d="M 3425 4513 
L 3425 3897 
Q 3066 4069 2747 4153 
Q 2428 4238 2131 4238 
Q 1616 4238 1336 4038 
Q 1056 3838 1056 3469 
Q 1056 3159 1242 3001 
Q 1428 2844 1947 2747 
L 2328 2669 
Q 3034 2534 3370 2195 
Q 3706 1856 3706 1288 
Q 3706 609 3251 259 
Q 2797 -91 1919 -91 
Q 1588 -91 1214 -16 
Q 841 59 441 206 
L 441 856 
Q 825 641 1194 531 
Q 1563 422 1919 422 
Q 2459 422 2753 634 
Q 3047 847 3047 1241 
Q 3047 1584 2836 1778 
Q 2625 1972 2144 2069 
L 1759 2144 
Q 1053 2284 737 2584 
Q 422 2884 422 3419 
Q 422 4038 858 4394 
Q 1294 4750 2059 4750 
Q 2388 4750 2728 4690 
Q 3069 4631 3425 4513 
z
" transform="scale(0.015625)"/>
      <path id="DejaVuSans-77" d="M 269 3500 
L 844 3500 
L 1563 769 
L 2278 3500 
L 2956 3500 
L 3675 769 
L 4391 3500 
L 4966 3500 
L 4050 0 
L 3372 0 
L 2619 2869 
L 1863 0 
L 1184 0 
L 269 3500 
z
" transform="scale(0.015625)"/>
      <path id="DejaVuSans-69" d="M 603 3500 
L 1178 3500 
L 1178 0 
L 603 0 
L 603 3500 
z
M 603 4863 
L 1178 4863 
L 1178 4134 
L 603 4134 
L 603 4863 
z
" transform="scale(0.015625)"/>
      <path id="DejaVuSans-74" d="M 1172 4494 
L 1172 3500 
L 2356 3500 
L 2356 3053 
L 1172 3053 
L 1172 1153 
Q 1172 725 1289 603 
Q 1406 481 1766 481 
L 2356 481 
L 2356 0 
L 1766 0 
Q 1100 0 847 248 
Q 594 497 594 1153 
L 594 3053 
L 172 3053 
L 172 3500 
L 594 3500 
L 594 4494 
L 1172 4494 
z
" transform="scale(0.015625)"/>
      <path id="DejaVuSans-7a" d="M 353 3500 
L 3084 3500 
L 3084 2975 
L 922 459 
L 3084 459 
L 3084 0 
L 275 0 
L 275 525 
L 2438 3041 
L 353 3041 
L 353 3500 
z
" transform="scale(0.015625)"/>
      <path id="DejaVuSans-6c" d="M 603 4863 
L 1178 4863 
L 1178 0 
L 603 0 
L 603 4863 
z
" transform="scale(0.015625)"/>
      <path id="DejaVuSans-64" d="M 2906 2969 
L 2906 4863 
L 3481 4863 
L 3481 0 
L 2906 0 
L 2906 525 
Q 2725 213 2448 61 
Q 2172 -91 1784 -91 
Q 1150 -91 751 415 
Q 353 922 353 1747 
Q 353 2572 751 3078 
Q 1150 3584 1784 3584 
Q 2172 3584 2448 3432 
Q 2725 3281 2906 2969 
z
M 947 1747 
Q 947 1113 1208 752 
Q 1469 391 1925 391 
Q 2381 391 2643 752 
Q 2906 1113 2906 1747 
Q 2906 2381 2643 2742 
Q 2381 3103 1925 3103 
Q 1469 3103 1208 2742 
Q 947 2381 947 1747 
z
" transform="scale(0.015625)"/>
     </defs>
     <use xlink:href="#DejaVuSans-53"/>
     <use xlink:href="#DejaVuSans-77" x="63.476562"/>
     <use xlink:href="#DejaVuSans-69" x="145.263672"/>
     <use xlink:href="#DejaVuSans-74" x="173.046875"/>
     <use xlink:href="#DejaVuSans-7a" x="212.255859"/>
     <use xlink:href="#DejaVuSans-65" x="264.746094"/>
     <use xlink:href="#DejaVuSans-72" x="326.269531"/>
     <use xlink:href="#DejaVuSans-6c" x="367.382812"/>
     <use xlink:href="#DejaVuSans-61" x="395.166016"/>
     <use xlink:href="#DejaVuSans-6e" x="456.445312"/>
     <use xlink:href="#DejaVuSans-64" x="519.824219"/>
    </g>
   </g>
   <g id="legend_1">
    <g id="patch_7">
     <path d="M 226.345313 99.204687 
L 696.86 99.204687 
Q 699.46 99.204687 699.46 96.604687 
L 699.46 40.66 
Q 699.46 38.06 696.86 38.06 
L 226.345313 38.06 
Q 223.745313 38.06 223.745313 40.66 
L 223.745313 96.604687 
Q 223.745313 99.204687 226.345313 99.204687 
z
" style="fill: #ffffff; opacity: 0.8; stroke: #cccccc; stroke-linejoin: miter"/>
    </g>
    <g id="line2d_20">
     <path d="M 228.945313 48.587969 
L 241.945313 48.587969 
L 254.945313 48.587969 
" style="fill: none; stroke: #67916e; stroke-width: 4; stroke-linecap: square"/>
    </g>
    <g id="text_19">
     <!-- Data: Total number of confirmed cases (7-day average) -->
     <g transform="translate(265.345313 53.137969)scale(0.13 -0.13)">
      <defs>
       <path id="DejaVuSans-44" d="M 1259 4147 
L 1259 519 
L 2022 519 
Q 2988 519 3436 956 
Q 3884 1394 3884 2338 
Q 3884 3275 3436 3711 
Q 2988 4147 2022 4147 
L 1259 4147 
z
M 628 4666 
L 1925 4666 
Q 3281 4666 3915 4102 
Q 4550 3538 4550 2338 
Q 4550 1131 3912 565 
Q 3275 0 1925 0 
L 628 0 
L 628 4666 
z
" transform="scale(0.015625)"/>
       <path id="DejaVuSans-3a" d="M 750 794 
L 1409 794 
L 1409 0 
L 750 0 
L 750 794 
z
M 750 3309 
L 1409 3309 
L 1409 2516 
L 750 2516 
L 750 3309 
z
" transform="scale(0.015625)"/>
       <path id="DejaVuSans-20" transform="scale(0.015625)"/>
       <path id="DejaVuSans-54" d="M -19 4666 
L 3928 4666 
L 3928 4134 
L 2272 4134 
L 2272 0 
L 1638 0 
L 1638 4134 
L -19 4134 
L -19 4666 
z
" transform="scale(0.015625)"/>
       <path id="DejaVuSans-6f" d="M 1959 3097 
Q 1497 3097 1228 2736 
Q 959 2375 959 1747 
Q 959 1119 1226 758 
Q 1494 397 1959 397 
Q 2419 397 2687 759 
Q 2956 1122 2956 1747 
Q 2956 2369 2687 2733 
Q 2419 3097 1959 3097 
z
M 1959 3584 
Q 2709 3584 3137 3096 
Q 3566 2609 3566 1747 
Q 3566 888 3137 398 
Q 2709 -91 1959 -91 
Q 1206 -91 779 398 
Q 353 888 353 1747 
Q 353 2609 779 3096 
Q 1206 3584 1959 3584 
z
" transform="scale(0.015625)"/>
       <path id="DejaVuSans-75" d="M 544 1381 
L 544 3500 
L 1119 3500 
L 1119 1403 
Q 1119 906 1312 657 
Q 1506 409 1894 409 
Q 2359 409 2629 706 
Q 2900 1003 2900 1516 
L 2900 3500 
L 3475 3500 
L 3475 0 
L 2900 0 
L 2900 538 
Q 2691 219 2414 64 
Q 2138 -91 1772 -91 
Q 1169 -91 856 284 
Q 544 659 544 1381 
z
M 1991 3584 
L 1991 3584 
z
" transform="scale(0.015625)"/>
       <path id="DejaVuSans-6d" d="M 3328 2828 
Q 3544 3216 3844 3400 
Q 4144 3584 4550 3584 
Q 5097 3584 5394 3201 
Q 5691 2819 5691 2113 
L 5691 0 
L 5113 0 
L 5113 2094 
Q 5113 2597 4934 2840 
Q 4756 3084 4391 3084 
Q 3944 3084 3684 2787 
Q 3425 2491 3425 1978 
L 3425 0 
L 2847 0 
L 2847 2094 
Q 2847 2600 2669 2842 
Q 2491 3084 2119 3084 
Q 1678 3084 1418 2786 
Q 1159 2488 1159 1978 
L 1159 0 
L 581 0 
L 581 3500 
L 1159 3500 
L 1159 2956 
Q 1356 3278 1631 3431 
Q 1906 3584 2284 3584 
Q 2666 3584 2933 3390 
Q 3200 3197 3328 2828 
z
" transform="scale(0.015625)"/>
       <path id="DejaVuSans-66" d="M 2375 4863 
L 2375 4384 
L 1825 4384 
Q 1516 4384 1395 4259 
Q 1275 4134 1275 3809 
L 1275 3500 
L 2222 3500 
L 2222 3053 
L 1275 3053 
L 1275 0 
L 697 0 
L 697 3053 
L 147 3053 
L 147 3500 
L 697 3500 
L 697 3744 
Q 697 4328 969 4595 
Q 1241 4863 1831 4863 
L 2375 4863 
z
" transform="scale(0.015625)"/>
       <path id="DejaVuSans-63" d="M 3122 3366 
L 3122 2828 
Q 2878 2963 2633 3030 
Q 2388 3097 2138 3097 
Q 1578 3097 1268 2742 
Q 959 2388 959 1747 
Q 959 1106 1268 751 
Q 1578 397 2138 397 
Q 2388 397 2633 464 
Q 2878 531 3122 666 
L 3122 134 
Q 2881 22 2623 -34 
Q 2366 -91 2075 -91 
Q 1284 -91 818 406 
Q 353 903 353 1747 
Q 353 2603 823 3093 
Q 1294 3584 2113 3584 
Q 2378 3584 2631 3529 
Q 2884 3475 3122 3366 
z
" transform="scale(0.015625)"/>
       <path id="DejaVuSans-73" d="M 2834 3397 
L 2834 2853 
Q 2591 2978 2328 3040 
Q 2066 3103 1784 3103 
Q 1356 3103 1142 2972 
Q 928 2841 928 2578 
Q 928 2378 1081 2264 
Q 1234 2150 1697 2047 
L 1894 2003 
Q 2506 1872 2764 1633 
Q 3022 1394 3022 966 
Q 3022 478 2636 193 
Q 2250 -91 1575 -91 
Q 1294 -91 989 -36 
Q 684 19 347 128 
L 347 722 
Q 666 556 975 473 
Q 1284 391 1588 391 
Q 1994 391 2212 530 
Q 2431 669 2431 922 
Q 2431 1156 2273 1281 
Q 2116 1406 1581 1522 
L 1381 1569 
Q 847 1681 609 1914 
Q 372 2147 372 2553 
Q 372 3047 722 3315 
Q 1072 3584 1716 3584 
Q 2034 3584 2315 3537 
Q 2597 3491 2834 3397 
z
" transform="scale(0.015625)"/>
       <path id="DejaVuSans-28" d="M 1984 4856 
Q 1566 4138 1362 3434 
Q 1159 2731 1159 2009 
Q 1159 1288 1364 580 
Q 1569 -128 1984 -844 
L 1484 -844 
Q 1016 -109 783 600 
Q 550 1309 550 2009 
Q 550 2706 781 3412 
Q 1013 4119 1484 4856 
L 1984 4856 
z
" transform="scale(0.015625)"/>
       <path id="DejaVuSans-37" d="M 525 4666 
L 3525 4666 
L 3525 4397 
L 1831 0 
L 1172 0 
L 2766 4134 
L 525 4134 
L 525 4666 
z
" transform="scale(0.015625)"/>
       <path id="DejaVuSans-79" d="M 2059 -325 
Q 1816 -950 1584 -1140 
Q 1353 -1331 966 -1331 
L 506 -1331 
L 506 -850 
L 844 -850 
Q 1081 -850 1212 -737 
Q 1344 -625 1503 -206 
L 1606 56 
L 191 3500 
L 800 3500 
L 1894 763 
L 2988 3500 
L 3597 3500 
L 2059 -325 
z
" transform="scale(0.015625)"/>
       <path id="DejaVuSans-76" d="M 191 3500 
L 800 3500 
L 1894 563 
L 2988 3500 
L 3597 3500 
L 2284 0 
L 1503 0 
L 191 3500 
z
" transform="scale(0.015625)"/>
       <path id="DejaVuSans-67" d="M 2906 1791 
Q 2906 2416 2648 2759 
Q 2391 3103 1925 3103 
Q 1463 3103 1205 2759 
Q 947 2416 947 1791 
Q 947 1169 1205 825 
Q 1463 481 1925 481 
Q 2391 481 2648 825 
Q 2906 1169 2906 1791 
z
M 3481 434 
Q 3481 -459 3084 -895 
Q 2688 -1331 1869 -1331 
Q 1566 -1331 1297 -1286 
Q 1028 -1241 775 -1147 
L 775 -588 
Q 1028 -725 1275 -790 
Q 1522 -856 1778 -856 
Q 2344 -856 2625 -561 
Q 2906 -266 2906 331 
L 2906 616 
Q 2728 306 2450 153 
Q 2172 0 1784 0 
Q 1141 0 747 490 
Q 353 981 353 1791 
Q 353 2603 747 3093 
Q 1141 3584 1784 3584 
Q 2172 3584 2450 3431 
Q 2728 3278 2906 2969 
L 2906 3500 
L 3481 3500 
L 3481 434 
z
" transform="scale(0.015625)"/>
       <path id="DejaVuSans-29" d="M 513 4856 
L 1013 4856 
Q 1481 4119 1714 3412 
Q 1947 2706 1947 2009 
Q 1947 1309 1714 600 
Q 1481 -109 1013 -844 
L 513 -844 
Q 928 -128 1133 580 
Q 1338 1288 1338 2009 
Q 1338 2731 1133 3434 
Q 928 4138 513 4856 
z
" transform="scale(0.015625)"/>
      </defs>
      <use xlink:href="#DejaVuSans-44"/>
      <use xlink:href="#DejaVuSans-61" x="77.001953"/>
      <use xlink:href="#DejaVuSans-74" x="138.28125"/>
      <use xlink:href="#DejaVuSans-61" x="177.490234"/>
      <use xlink:href="#DejaVuSans-3a" x="238.769531"/>
      <use xlink:href="#DejaVuSans-20" x="272.460938"/>
      <use xlink:href="#DejaVuSans-54" x="304.248047"/>
      <use xlink:href="#DejaVuSans-6f" x="348.332031"/>
      <use xlink:href="#DejaVuSans-74" x="409.513672"/>
      <use xlink:href="#DejaVuSans-61" x="448.722656"/>
      <use xlink:href="#DejaVuSans-6c" x="510.001953"/>
      <use xlink:href="#DejaVuSans-20" x="537.785156"/>
      <use xlink:href="#DejaVuSans-6e" x="569.572266"/>
      <use xlink:href="#DejaVuSans-75" x="632.951172"/>
      <use xlink:href="#DejaVuSans-6d" x="696.330078"/>
      <use xlink:href="#DejaVuSans-62" x="793.742188"/>
      <use xlink:href="#DejaVuSans-65" x="857.21875"/>
      <use xlink:href="#DejaVuSans-72" x="918.742188"/>
      <use xlink:href="#DejaVuSans-20" x="959.855469"/>
      <use xlink:href="#DejaVuSans-6f" x="991.642578"/>
      <use xlink:href="#DejaVuSans-66" x="1052.824219"/>
      <use xlink:href="#DejaVuSans-20" x="1088.029297"/>
      <use xlink:href="#DejaVuSans-63" x="1119.816406"/>
      <use xlink:href="#DejaVuSans-6f" x="1174.796875"/>
      <use xlink:href="#DejaVuSans-6e" x="1235.978516"/>
      <use xlink:href="#DejaVuSans-66" x="1299.357422"/>
      <use xlink:href="#DejaVuSans-69" x="1334.5625"/>
      <use xlink:href="#DejaVuSans-72" x="1362.345703"/>
      <use xlink:href="#DejaVuSans-6d" x="1401.708984"/>
      <use xlink:href="#DejaVuSans-65" x="1499.121094"/>
      <use xlink:href="#DejaVuSans-64" x="1560.644531"/>
      <use xlink:href="#DejaVuSans-20" x="1624.121094"/>
      <use xlink:href="#DejaVuSans-63" x="1655.908203"/>
      <use xlink:href="#DejaVuSans-61" x="1710.888672"/>
      <use xlink:href="#DejaVuSans-73" x="1772.167969"/>
      <use xlink:href="#DejaVuSans-65" x="1824.267578"/>
      <use xlink:href="#DejaVuSans-73" x="1885.791016"/>
      <use xlink:href="#DejaVuSans-20" x="1937.890625"/>
      <use xlink:href="#DejaVuSans-28" x="1969.677734"/>
      <use xlink:href="#DejaVuSans-37" x="2008.691406"/>
      <use xlink:href="#DejaVuSans-2d" x="2072.314453"/>
      <use xlink:href="#DejaVuSans-64" x="2108.398438"/>
      <use xlink:href="#DejaVuSans-61" x="2171.875"/>
      <use xlink:href="#DejaVuSans-79" x="2233.154297"/>
      <use xlink:href="#DejaVuSans-20" x="2292.333984"/>
      <use xlink:href="#DejaVuSans-61" x="2324.121094"/>
      <use xlink:href="#DejaVuSans-76" x="2385.400391"/>
      <use xlink:href="#DejaVuSans-65" x="2444.580078"/>
      <use xlink:href="#DejaVuSans-72" x="2506.103516"/>
      <use xlink:href="#DejaVuSans-61" x="2547.216797"/>
      <use xlink:href="#DejaVuSans-67" x="2608.496094"/>
      <use xlink:href="#DejaVuSans-65" x="2671.972656"/>
      <use xlink:href="#DejaVuSans-29" x="2733.496094"/>
     </g>
    </g>
    <g id="line2d_21">
     <path d="M 228.945313 67.669531 
L 241.945313 67.669531 
L 254.945313 67.669531 
" style="fill: none; stroke: #0d4a70; stroke-width: 4; stroke-linecap: square"/>
    </g>
    <g id="text_20">
     <!-- Data: Estimated number of B.1.1.7 cases (7-day average), Viollier -->
     <g transform="translate(265.345313 72.219531)scale(0.13 -0.13)">
      <defs>
       <path id="DejaVuSans-45" d="M 628 4666 
L 3578 4666 
L 3578 4134 
L 1259 4134 
L 1259 2753 
L 3481 2753 
L 3481 2222 
L 1259 2222 
L 1259 531 
L 3634 531 
L 3634 0 
L 628 0 
L 628 4666 
z
" transform="scale(0.015625)"/>
       <path id="DejaVuSans-42" d="M 1259 2228 
L 1259 519 
L 2272 519 
Q 2781 519 3026 730 
Q 3272 941 3272 1375 
Q 3272 1813 3026 2020 
Q 2781 2228 2272 2228 
L 1259 2228 
z
M 1259 4147 
L 1259 2741 
L 2194 2741 
Q 2656 2741 2882 2914 
Q 3109 3088 3109 3444 
Q 3109 3797 2882 3972 
Q 2656 4147 2194 4147 
L 1259 4147 
z
M 628 4666 
L 2241 4666 
Q 2963 4666 3353 4366 
Q 3744 4066 3744 3513 
Q 3744 3084 3544 2831 
Q 3344 2578 2956 2516 
Q 3422 2416 3680 2098 
Q 3938 1781 3938 1306 
Q 3938 681 3513 340 
Q 3088 0 2303 0 
L 628 0 
L 628 4666 
z
" transform="scale(0.015625)"/>
       <path id="DejaVuSans-2e" d="M 684 794 
L 1344 794 
L 1344 0 
L 684 0 
L 684 794 
z
" transform="scale(0.015625)"/>
       <path id="DejaVuSans-2c" d="M 750 794 
L 1409 794 
L 1409 256 
L 897 -744 
L 494 -744 
L 750 256 
L 750 794 
z
" transform="scale(0.015625)"/>
       <path id="DejaVuSans-56" d="M 1831 0 
L 50 4666 
L 709 4666 
L 2188 738 
L 3669 4666 
L 4325 4666 
L 2547 0 
L 1831 0 
z
" transform="scale(0.015625)"/>
      </defs>
      <use xlink:href="#DejaVuSans-44"/>
      <use xlink:href="#DejaVuSans-61" x="77.001953"/>
      <use xlink:href="#DejaVuSans-74" x="138.28125"/>
      <use xlink:href="#DejaVuSans-61" x="177.490234"/>
      <use xlink:href="#DejaVuSans-3a" x="238.769531"/>
      <use xlink:href="#DejaVuSans-20" x="272.460938"/>
      <use xlink:href="#DejaVuSans-45" x="304.248047"/>
      <use xlink:href="#DejaVuSans-73" x="367.431641"/>
      <use xlink:href="#DejaVuSans-74" x="419.53125"/>
      <use xlink:href="#DejaVuSans-69" x="458.740234"/>
      <use xlink:href="#DejaVuSans-6d" x="486.523438"/>
      <use xlink:href="#DejaVuSans-61" x="583.935547"/>
      <use xlink:href="#DejaVuSans-74" x="645.214844"/>
      <use xlink:href="#DejaVuSans-65" x="684.423828"/>
      <use xlink:href="#DejaVuSans-64" x="745.947266"/>
      <use xlink:href="#DejaVuSans-20" x="809.423828"/>
      <use xlink:href="#DejaVuSans-6e" x="841.210938"/>
      <use xlink:href="#DejaVuSans-75" x="904.589844"/>
      <use xlink:href="#DejaVuSans-6d" x="967.96875"/>
      <use xlink:href="#DejaVuSans-62" x="1065.380859"/>
      <use xlink:href="#DejaVuSans-65" x="1128.857422"/>
      <use xlink:href="#DejaVuSans-72" x="1190.380859"/>
      <use xlink:href="#DejaVuSans-20" x="1231.494141"/>
      <use xlink:href="#DejaVuSans-6f" x="1263.28125"/>
      <use xlink:href="#DejaVuSans-66" x="1324.462891"/>
      <use xlink:href="#DejaVuSans-20" x="1359.667969"/>
      <use xlink:href="#DejaVuSans-42" x="1391.455078"/>
      <use xlink:href="#DejaVuSans-2e" x="1460.058594"/>
      <use xlink:href="#DejaVuSans-31" x="1491.845703"/>
      <use xlink:href="#DejaVuSans-2e" x="1555.46875"/>
      <use xlink:href="#DejaVuSans-31" x="1587.255859"/>
      <use xlink:href="#DejaVuSans-2e" x="1650.878906"/>
      <use xlink:href="#DejaVuSans-37" x="1682.666016"/>
      <use xlink:href="#DejaVuSans-20" x="1746.289062"/>
      <use xlink:href="#DejaVuSans-63" x="1778.076172"/>
      <use xlink:href="#DejaVuSans-61" x="1833.056641"/>
      <use xlink:href="#DejaVuSans-73" x="1894.335938"/>
      <use xlink:href="#DejaVuSans-65" x="1946.435547"/>
      <use xlink:href="#DejaVuSans-73" x="2007.958984"/>
      <use xlink:href="#DejaVuSans-20" x="2060.058594"/>
      <use xlink:href="#DejaVuSans-28" x="2091.845703"/>
      <use xlink:href="#DejaVuSans-37" x="2130.859375"/>
      <use xlink:href="#DejaVuSans-2d" x="2194.482422"/>
      <use xlink:href="#DejaVuSans-64" x="2230.566406"/>
      <use xlink:href="#DejaVuSans-61" x="2294.042969"/>
      <use xlink:href="#DejaVuSans-79" x="2355.322266"/>
      <use xlink:href="#DejaVuSans-20" x="2414.501953"/>
      <use xlink:href="#DejaVuSans-61" x="2446.289062"/>
      <use xlink:href="#DejaVuSans-76" x="2507.568359"/>
      <use xlink:href="#DejaVuSans-65" x="2566.748047"/>
      <use xlink:href="#DejaVuSans-72" x="2628.271484"/>
      <use xlink:href="#DejaVuSans-61" x="2669.384766"/>
      <use xlink:href="#DejaVuSans-67" x="2730.664062"/>
      <use xlink:href="#DejaVuSans-65" x="2794.140625"/>
      <use xlink:href="#DejaVuSans-29" x="2855.664062"/>
      <use xlink:href="#DejaVuSans-2c" x="2894.677734"/>
      <use xlink:href="#DejaVuSans-20" x="2926.464844"/>
      <use xlink:href="#DejaVuSans-56" x="2958.251953"/>
      <use xlink:href="#DejaVuSans-69" x="3024.410156"/>
      <use xlink:href="#DejaVuSans-6f" x="3052.193359"/>
      <use xlink:href="#DejaVuSans-6c" x="3113.375"/>
      <use xlink:href="#DejaVuSans-6c" x="3141.158203"/>
      <use xlink:href="#DejaVuSans-69" x="3168.941406"/>
      <use xlink:href="#DejaVuSans-65" x="3196.724609"/>
      <use xlink:href="#DejaVuSans-72" x="3258.248047"/>
     </g>
    </g>
    <g id="line2d_22">
     <path d="M 228.945313 86.751094 
L 241.945313 86.751094 
L 254.945313 86.751094 
" style="fill: none; stroke: #1883c6; stroke-width: 4; stroke-linecap: square"/>
    </g>
    <g id="text_21">
     <!-- Data: Estimated number of B.1.1.7 cases (7-day average), Risch -->
     <g transform="translate(265.345313 91.301094)scale(0.13 -0.13)">
      <defs>
       <path id="DejaVuSans-52" d="M 2841 2188 
Q 3044 2119 3236 1894 
Q 3428 1669 3622 1275 
L 4263 0 
L 3584 0 
L 2988 1197 
Q 2756 1666 2539 1819 
Q 2322 1972 1947 1972 
L 1259 1972 
L 1259 0 
L 628 0 
L 628 4666 
L 2053 4666 
Q 2853 4666 3247 4331 
Q 3641 3997 3641 3322 
Q 3641 2881 3436 2590 
Q 3231 2300 2841 2188 
z
M 1259 4147 
L 1259 2491 
L 2053 2491 
Q 2509 2491 2742 2702 
Q 2975 2913 2975 3322 
Q 2975 3731 2742 3939 
Q 2509 4147 2053 4147 
L 1259 4147 
z
" transform="scale(0.015625)"/>
       <path id="DejaVuSans-68" d="M 3513 2113 
L 3513 0 
L 2938 0 
L 2938 2094 
Q 2938 2591 2744 2837 
Q 2550 3084 2163 3084 
Q 1697 3084 1428 2787 
Q 1159 2491 1159 1978 
L 1159 0 
L 581 0 
L 581 4863 
L 1159 4863 
L 1159 2956 
Q 1366 3272 1645 3428 
Q 1925 3584 2291 3584 
Q 2894 3584 3203 3211 
Q 3513 2838 3513 2113 
z
" transform="scale(0.015625)"/>
      </defs>
      <use xlink:href="#DejaVuSans-44"/>
      <use xlink:href="#DejaVuSans-61" x="77.001953"/>
      <use xlink:href="#DejaVuSans-74" x="138.28125"/>
      <use xlink:href="#DejaVuSans-61" x="177.490234"/>
      <use xlink:href="#DejaVuSans-3a" x="238.769531"/>
      <use xlink:href="#DejaVuSans-20" x="272.460938"/>
      <use xlink:href="#DejaVuSans-45" x="304.248047"/>
      <use xlink:href="#DejaVuSans-73" x="367.431641"/>
      <use xlink:href="#DejaVuSans-74" x="419.53125"/>
      <use xlink:href="#DejaVuSans-69" x="458.740234"/>
      <use xlink:href="#DejaVuSans-6d" x="486.523438"/>
      <use xlink:href="#DejaVuSans-61" x="583.935547"/>
      <use xlink:href="#DejaVuSans-74" x="645.214844"/>
      <use xlink:href="#DejaVuSans-65" x="684.423828"/>
      <use xlink:href="#DejaVuSans-64" x="745.947266"/>
      <use xlink:href="#DejaVuSans-20" x="809.423828"/>
      <use xlink:href="#DejaVuSans-6e" x="841.210938"/>
      <use xlink:href="#DejaVuSans-75" x="904.589844"/>
      <use xlink:href="#DejaVuSans-6d" x="967.96875"/>
      <use xlink:href="#DejaVuSans-62" x="1065.380859"/>
      <use xlink:href="#DejaVuSans-65" x="1128.857422"/>
      <use xlink:href="#DejaVuSans-72" x="1190.380859"/>
      <use xlink:href="#DejaVuSans-20" x="1231.494141"/>
      <use xlink:href="#DejaVuSans-6f" x="1263.28125"/>
      <use xlink:href="#DejaVuSans-66" x="1324.462891"/>
      <use xlink:href="#DejaVuSans-20" x="1359.667969"/>
      <use xlink:href="#DejaVuSans-42" x="1391.455078"/>
      <use xlink:href="#DejaVuSans-2e" x="1460.058594"/>
      <use xlink:href="#DejaVuSans-31" x="1491.845703"/>
      <use xlink:href="#DejaVuSans-2e" x="1555.46875"/>
      <use xlink:href="#DejaVuSans-31" x="1587.255859"/>
      <use xlink:href="#DejaVuSans-2e" x="1650.878906"/>
      <use xlink:href="#DejaVuSans-37" x="1682.666016"/>
      <use xlink:href="#DejaVuSans-20" x="1746.289062"/>
      <use xlink:href="#DejaVuSans-63" x="1778.076172"/>
      <use xlink:href="#DejaVuSans-61" x="1833.056641"/>
      <use xlink:href="#DejaVuSans-73" x="1894.335938"/>
      <use xlink:href="#DejaVuSans-65" x="1946.435547"/>
      <use xlink:href="#DejaVuSans-73" x="2007.958984"/>
      <use xlink:href="#DejaVuSans-20" x="2060.058594"/>
      <use xlink:href="#DejaVuSans-28" x="2091.845703"/>
      <use xlink:href="#DejaVuSans-37" x="2130.859375"/>
      <use xlink:href="#DejaVuSans-2d" x="2194.482422"/>
      <use xlink:href="#DejaVuSans-64" x="2230.566406"/>
      <use xlink:href="#DejaVuSans-61" x="2294.042969"/>
      <use xlink:href="#DejaVuSans-79" x="2355.322266"/>
      <use xlink:href="#DejaVuSans-20" x="2414.501953"/>
      <use xlink:href="#DejaVuSans-61" x="2446.289062"/>
      <use xlink:href="#DejaVuSans-76" x="2507.568359"/>
      <use xlink:href="#DejaVuSans-65" x="2566.748047"/>
      <use xlink:href="#DejaVuSans-72" x="2628.271484"/>
      <use xlink:href="#DejaVuSans-61" x="2669.384766"/>
      <use xlink:href="#DejaVuSans-67" x="2730.664062"/>
      <use xlink:href="#DejaVuSans-65" x="2794.140625"/>
      <use xlink:href="#DejaVuSans-29" x="2855.664062"/>
      <use xlink:href="#DejaVuSans-2c" x="2894.677734"/>
      <use xlink:href="#DejaVuSans-20" x="2926.464844"/>
      <use xlink:href="#DejaVuSans-52" x="2958.251953"/>
      <use xlink:href="#DejaVuSans-69" x="3027.734375"/>
      <use xlink:href="#DejaVuSans-73" x="3055.517578"/>
      <use xlink:href="#DejaVuSans-63" x="3107.617188"/>
      <use xlink:href="#DejaVuSans-68" x="3162.597656"/>
     </g>
    </g>
   </g>
  </g>
 </g>
 <defs>
  <clipPath id="p6195cba8f2">
   <rect x="53.8" y="31.56" width="652.16" height="422.48"/>
  </clipPath>
 </defs>
</svg>
